<?xml version="1.0" standalone="no"?>
<!DOCTYPE svg PUBLIC "-//W3C//DTD SVG 1.1//EN" "http://www.w3.org/Graphics/SVG/1.1/DTD/svg11.dtd" >
<svg xmlns="http://www.w3.org/2000/svg">
<metadata></metadata>
<defs>
<font id="EtelkaTextProBold" horiz-adv-x="1286" >
<font-face units-per-em="2048" ascent="1638" descent="-410" />
<missing-glyph horiz-adv-x="526" />
<glyph unicode="&#xfb01;" horiz-adv-x="1257" d="M2 776v271h170v51q0 92 24 160t67 112t110.5 71t145 37.5t179.5 10.5q213 0 406 -62l-70 -241q-125 37 -286 37q-134 0 -198.5 -31t-64.5 -115v-30h637v-1047h-315v776h-322v-776h-313v776h-170z" />
<glyph unicode="&#xfb02;" horiz-adv-x="1269" d="M2 776v271h170v51q0 92 23 160.5t63.5 112.5t103.5 70.5t134.5 37t165.5 10.5q221 0 460 -62v-1122q0 -158 70 -256l-285 -98q-100 121 -100 344v911q-83 17 -152 17q-89 0 -129.5 -31.5t-40.5 -114.5v-30h232v-271h-232v-776h-313v776h-170z" />
<glyph unicode="&#xfb03;" horiz-adv-x="1892" d="M2 776v271h170v51q0 91 22.5 160.5t59.5 112.5t92 70t113.5 37.5t130.5 10.5q207 0 375 -72q125 72 370 72q211 0 404 -62l-68 -241q-130 37 -287 37q-133 0 -197.5 -31t-64.5 -115v-30h635v-1047h-313v776h-322v-776h-315v776h-322v-776h-313v776h-170zM485 1047h322v51 q0 58 12 102q-87 23 -164 23q-91 0 -130.5 -32t-39.5 -114v-30z" />
<glyph unicode="&#xfb04;" horiz-adv-x="1904" d="M2 776v271h170v51q0 91 22.5 160.5t59.5 112.5t92 70t113.5 37.5t130.5 10.5q184 0 368 -68q117 68 340 68q220 0 459 -62v-1122q0 -159 72 -256l-285 -98q-100 121 -100 344v911q-87 17 -154 17q-87 0 -127.5 -32t-40.5 -114v-30h232v-271h-232v-776h-315v776h-322v-776 h-313v776h-170zM485 1047h322v51q0 58 12 102q-87 23 -164 23q-95 0 -132.5 -34.5t-37.5 -121.5v-20z" />
<glyph horiz-adv-x="0" />
<glyph horiz-adv-x="2048" />
<glyph unicode=" "  horiz-adv-x="526" />
<glyph unicode="&#x09;" horiz-adv-x="526" />
<glyph unicode="&#xa0;" horiz-adv-x="526" />
<glyph unicode="!" horiz-adv-x="681" d="M152 1427h376l-75 -946h-226zM156 168q0 104 39 136t147 32q111 0 150.5 -32t39.5 -136q0 -113 -39 -147.5t-151 -34.5q-109 0 -147.5 34.5t-38.5 147.5z" />
<glyph unicode="&#x22;" horiz-adv-x="823" d="M92 1427h264l-39 -501h-202zM473 1427h258l-39 -501h-200z" />
<glyph unicode="#" horiz-adv-x="1511" d="M45 332l18 248h248l21 290h-252l16 250h252l21 310h288l-20 -310h256l20 310h289l-20 -310h268l-14 -250h-271l-20 -290h272l-16 -248h-271l-22 -332h-289l23 332h-256l-23 -332h-289l23 332h-252zM602 580h254l21 290h-256z" />
<glyph unicode="$" horiz-adv-x="1273" d="M109 952q0 205 102 313t315 134v291h209v-281q239 -3 395 -59l-65 -271q-136 39 -330 45v-278q210 -33 315 -128.5t105 -271.5q0 -208 -99.5 -307t-320.5 -121v-299h-209v291q-241 3 -403 60l67 272q130 -40 336 -47v289q-205 28 -311 113.5t-106 254.5zM410 993 q0 -52 24 -77.5t92 -38.5v237q-62 -12 -89 -41t-27 -80zM735 303q61 12 88 40.5t27 82.5q0 55 -22.5 83t-92.5 42v-248z" />
<glyph unicode="%" horiz-adv-x="2064" d="M55 999q0 138 21 227t71.5 142t123.5 73.5t186 20.5q114 0 187 -20.5t123.5 -73.5t71.5 -141.5t21 -227.5q0 -141 -21 -233t-71 -148t-124 -79t-187 -23q-150 0 -235 43t-126 148t-41 292zM328 997q0 -115 12 -170t37.5 -73.5t79.5 -18.5q55 0 80.5 19t37 73t11.5 170 q0 112 -11.5 163.5t-36.5 68t-81 16.5q-55 0 -80 -16t-37 -68t-12 -164zM428 0l911 1427h287l-913 -1427h-285zM1204 453q0 139 21 228.5t71 142.5t123 73.5t187 20.5t187 -20.5t123.5 -73.5t71.5 -142.5t21 -228.5q0 -186 -40.5 -290.5t-126 -148t-236.5 -43.5t-236 43.5 t-125.5 148t-40.5 290.5zM1477 453q0 -115 12 -170t37.5 -74t79.5 -19q55 0 80 19t36 73.5t11 170.5q0 112 -11 163t-35.5 67.5t-80.5 16.5q-55 0 -80 -16.5t-37 -68t-12 -162.5z" />
<glyph unicode="&#x26;" horiz-adv-x="1669" d="M88 371q0 170 95 260.5t296 99.5q-76 6 -129.5 24.5t-86.5 46t-51.5 70t-25 88t-6.5 109.5q0 82 13.5 141.5t48 109t93.5 79.5t149 46.5t214 16.5q201 0 315 -38t160 -114.5t46 -209.5q0 -156 -78.5 -239t-263.5 -97q132 -9 321 -219q66 122 66 262h340q0 -267 -201 -494 q40 -51 229 -313h-379q-68 100 -86 125q-124 -78 -249.5 -116t-274.5 -38q-159 0 -263.5 20t-170.5 68t-93.5 123t-27.5 189zM440 418q0 -102 42 -140t161 -38q106 0 188 24t164 80q-208 268 -344 268q-111 0 -161 -46t-50 -148zM514 1034q0 -92 38.5 -129t135.5 -37 q99 0 148 37.5t49 126.5q0 92 -42 124t-143 32q-104 0 -145 -31.5t-41 -122.5z" />
<glyph unicode="'" horiz-adv-x="448" d="M92 1427h264l-39 -501h-202z" />
<glyph unicode="(" horiz-adv-x="669" d="M139 510q0 237 35 423.5t100.5 313t148 207.5t187.5 125l144 -231q-67 -36 -115 -91.5t-88 -149.5t-60 -243.5t-20 -353.5t20 -353.5t60 -243.5t88 -149.5t115 -91.5l-144 -231q-105 44 -187.5 125t-148 207.5t-100.5 313t-35 423.5z" />
<glyph unicode=")" horiz-adv-x="669" d="M-84 -328q67 36 115 91t88 149t60 243.5t20 354.5q0 204 -20 353t-60 243.5t-88 150t-115 91.5l143 231q82 -35 151 -92t129.5 -146.5t102 -206t65 -275.5t23.5 -349t-23.5 -349t-65 -275.5t-102 -206t-129.5 -146.5t-151 -92z" />
<glyph unicode="*" horiz-adv-x="1089" d="M61 940v254h261l-132 227l224 127l131 -227l129 227l223 -127l-133 -227h262v-254h-262l131 -227l-223 -125l-127 223l-131 -223l-224 127l132 225h-261z" />
<glyph unicode="+" horiz-adv-x="1153" d="M74 594v301h350v352h301v-352h352v-301h-352v-350h-301v350h-350z" />
<glyph unicode="," horiz-adv-x="612" d="M6 -326l162 541h360l-241 -541h-281z" />
<glyph unicode="-" horiz-adv-x="649" d="M55 432v301h539v-301h-539z" />
<glyph unicode="." horiz-adv-x="612" d="M119 168q0 104 39 136t147 32q111 0 150 -32t39 -136q0 -59 -9 -94.5t-32.5 -55t-57 -26t-90.5 -6.5q-109 0 -147.5 34.5t-38.5 147.5z" />
<glyph unicode="/" horiz-adv-x="997" d="M4 0l729 1427h336l-731 -1427h-334z" />
<glyph unicode="0" d="M90 733q0 172 23.5 298t66.5 208.5t112.5 132t153.5 70t197 20.5t197 -20.5t153 -70t112 -132t66 -208.5t23 -298q0 -175 -23 -305t-66.5 -217.5t-112 -140.5t-153 -76t-196.5 -23t-197 22.5t-153.5 76t-112.5 141t-67 217.5t-23 305zM422 733q0 -103 3.5 -172t13.5 -123 t24.5 -84t41 -49t58 -25t80.5 -6q50 0 82 6t59 25.5t41.5 49t24.5 83.5t13 122.5t3 172.5q0 101 -3 166.5t-13.5 116.5t-24 77.5t-41.5 43.5t-59 21.5t-82 4.5q-50 0 -80.5 -4.5t-58 -21.5t-41.5 -43.5t-24.5 -77t-13.5 -116.5t-3 -167z" />
<glyph unicode="1" d="M150 1221l731 272v-1493h-326v1071l-319 -129z" />
<glyph unicode="2" d="M82 0v268q115 85 184.5 137.5t147.5 112.5t120 93.5t90 75.5t69 64t45.5 53t32 48.5t16 45t9.5 48.5t1 53q0 96 -47 131t-172 35q-95 0 -203 -16t-178 -39l-70 281q91 32 221 51.5t264 19.5q141 0 235.5 -18.5t165 -65.5t102.5 -131.5t32 -212.5q0 -78 -7.5 -133.5 t-34.5 -113.5t-65 -104.5t-112 -110t-162 -126.5t-229 -157h616v-289h-1071z" />
<glyph unicode="3" d="M90 20l62 293q58 -18 161.5 -28.5t184.5 -10.5q126 0 189.5 15t86.5 48t23 99q0 95 -43.5 129.5t-151.5 34.5h-221v283h215q103 0 141.5 28.5t38.5 112.5q0 55 -21 82.5t-80 41t-175 13.5q-80 0 -182 -10.5t-160 -28.5l-62 289q227 51 482 51q213 0 331.5 -36.5 t168.5 -115.5t50 -218q0 -80 -12.5 -135t-45 -101t-94 -71.5t-155.5 -32.5q99 -4 166 -30.5t103.5 -76t51.5 -112t15 -150.5q0 -228 -133 -320t-449 -92q-114 0 -251 13.5t-234 35.5z" />
<glyph unicode="4" horiz-adv-x="1282" d="M16 340v113q129 231 301.5 514t298.5 460h422v-811h185v-276h-185v-340h-315v340h-707zM410 616h313v506q-75 -102 -164 -248t-149 -258z" />
<glyph unicode="5" d="M119 20l61 293q53 -18 155 -28.5t183 -10.5q122 0 179.5 13t79.5 47t22 106q0 58 -8.5 88.5t-39 52.5t-83.5 28.5t-148 6.5q-185 0 -338 -20v831h924v-288h-612v-246q70 6 141 6q204 0 317.5 -45t160 -139.5t46.5 -261.5q0 -142 -28.5 -233t-97 -147.5t-172.5 -79 t-265 -22.5q-107 0 -251.5 14t-225.5 35z" />
<glyph unicode="6" d="M100 725q0 148 14 257.5t47.5 193t82.5 137.5t124 87.5t167 47.5t217 14q98 0 211.5 -15t195.5 -38l-63 -291q-118 41 -344 41q-75 0 -123 -10t-88.5 -38.5t-60 -84t-23.5 -143.5q109 16 219 16q206 0 321 -45t163 -139.5t48 -261.5q0 -143 -27.5 -234t-94 -147.5 t-168 -78.5t-259.5 -22q-160 0 -263 35.5t-171 123.5t-96.5 231t-28.5 364zM451 606q2 -87 11.5 -145.5t24 -96t41 -57t56 -26.5t75.5 -7q123 0 164 36.5t41 133.5q0 102 -41 138t-149 36q-115 0 -223 -12z" />
<glyph unicode="7" d="M115 1139v288h1136v-94q-129 -205 -321 -624.5t-287 -708.5h-375q118 324 272 654.5t271 484.5h-696z" />
<glyph unicode="8" d="M92 383q0 89 14.5 151t50.5 111.5t102.5 76t166.5 30.5q-94 7 -155.5 32.5t-94 71.5t-45 101t-12.5 135q0 67 9 117t31.5 93t61 72t96.5 49.5t138.5 29.5t187.5 9t187.5 -9t138.5 -29.5t96.5 -49.5t61 -72t31.5 -93t9 -117q0 -80 -12.5 -135t-45 -101t-94 -71.5 t-155.5 -32.5q100 -4 166.5 -30.5t102.5 -76t50.5 -111.5t14.5 -151q0 -153 -50.5 -241t-169.5 -129.5t-329 -41.5h-2q-210 0 -329.5 41.5t-170.5 129.5t-51 241zM436 418q0 -102 44 -140t165 -38q119 0 162 38t43 140q0 107 -44.5 151.5t-160.5 44.5q-119 0 -164 -44.5 t-45 -151.5zM453 1034q0 -91 44.5 -127.5t147.5 -36.5q100 0 144.5 37t44.5 127q0 91 -42 122.5t-147 31.5q-108 0 -150 -31.5t-42 -122.5z" />
<glyph unicode="9" d="M98 975q0 142 27 233.5t93.5 149.5t168.5 81t260 23q114 0 197 -10t146 -34t103 -59.5t65 -93t34.5 -127t9.5 -167.5q0 -145 -34 -279t-99.5 -254.5t-145.5 -224.5t-188 -213h-403q314 321 424 541q-50 -4 -127 -4q-206 0 -320.5 43t-162.5 136t-48 259zM440 985 q0 -45 5.5 -72.5t19 -48t41 -30.5t66 -14.5t100.5 -4.5q95 0 168 8q10 46 10 117q0 97 -17.5 143t-58 62t-127.5 16q-124 0 -165.5 -37.5t-41.5 -138.5z" />
<glyph unicode=":" horiz-adv-x="612" d="M119 168q0 104 39 136t147 32q111 0 150 -32t39 -136q0 -59 -9 -94.5t-32.5 -55t-57 -26t-90.5 -6.5q-109 0 -147.5 34.5t-38.5 147.5zM119 899q0 103 38.5 134.5t147.5 31.5q112 0 150.5 -31t38.5 -135q0 -59 -9 -94.5t-32.5 -55t-57 -26t-90.5 -6.5q-109 0 -147.5 34.5 t-38.5 147.5z" />
<glyph unicode=";" horiz-adv-x="612" d="M6 -326l162 541h360l-241 -541h-281zM119 899q0 103 38.5 134.5t147.5 31.5q112 0 150.5 -31t38.5 -135q0 -59 -9 -94.5t-32.5 -55t-57 -26t-90.5 -6.5q-109 0 -147.5 34.5t-38.5 147.5z" />
<glyph unicode="&#x3c;" horiz-adv-x="1153" d="M145 668v151l744 576l164 -228l-496 -419l496 -429l-162 -229z" />
<glyph unicode="=" horiz-adv-x="1153" d="M74 289v301h1003v-301h-1003zM74 901v301h1003v-301h-1003z" />
<glyph unicode="&#x3e;" horiz-adv-x="1153" d="M145 319l496 420l-496 426l162 232l748 -578v-151l-744 -576z" />
<glyph unicode="?" horiz-adv-x="1036" d="M35 1411q75 22 188.5 36.5t206.5 14.5q305 0 438 -101.5t133 -322.5q0 -81 -25 -158.5t-74.5 -150.5t-107 -136t-137.5 -136h-315q77 90 122 150t85 130.5t57 139.5t17 149q0 64 -52.5 98.5t-173.5 34.5q-196 0 -299 -39zM317 168q0 103 39 134.5t148 31.5q112 0 151 -31 t39 -135q0 -59 -9 -94t-33 -54.5t-57 -25.5t-91 -6q-56 0 -88.5 6t-56.5 25.5t-33 54.5t-9 94z" />
<glyph unicode="@" horiz-adv-x="1929" d="M102 545q0 178 36 309.5t100 215.5t164.5 134.5t216 70t268.5 19.5q102 0 173.5 -9t133.5 -32.5t100.5 -64t66 -105.5t39 -154t11.5 -212q0 -87 -4.5 -153t-17 -120.5t-29 -92t-45.5 -66t-62 -45.5t-83 -27.5t-103.5 -14t-128.5 -3.5q-126 0 -203 15t-126.5 55.5t-68 105 t-18.5 170.5q0 107 18 172t65 103t114 51.5t178 13.5q118 0 229 -21q-2 55 -11.5 87t-36 54.5t-71.5 30.5t-120 8q-105 0 -174.5 -6.5t-130.5 -26t-96 -52.5t-60.5 -88.5t-35 -130.5t-9.5 -183q0 -113 10 -191t37.5 -138.5t67.5 -96.5t108.5 -59t153 -31t207.5 -8 q122 0 208.5 11t154.5 38.5t110 70.5t69.5 112t38 156.5t10.5 211.5q0 250 -40 354h272q39 -140 39 -365q0 -195 -32 -336.5t-96 -239.5t-169 -156.5t-241 -84.5t-322 -26q-158 0 -277 15t-218.5 50t-167 92.5t-114 143.5t-67.5 201.5t-21 267.5zM819 549q0 -75 30.5 -99 t127.5 -24q84 0 116.5 28.5t32.5 112.5v90q-86 11 -157 11q-88 0 -119 -22t-31 -97z" />
<glyph unicode="A" horiz-adv-x="1411" d="M-41 0q89 297 235.5 710.5t270.5 716.5h510q102 -338 245 -744t257 -683h-365q-62 148 -121 315h-588q-29 -94 -92 -315h-352zM487 600h410q-103 305 -170 541h-53q-79 -216 -187 -541z" />
<glyph unicode="B" horiz-adv-x="1480" d="M168 0v1427h809q105 0 175.5 -21.5t109.5 -67t55 -105.5t16 -148q0 -80 -12 -134t-44.5 -98.5t-93.5 -69t-155 -31.5q100 -4 166.5 -30t102 -75.5t49.5 -111t14 -150.5q0 -206 -97 -295.5t-280 -89.5h-815zM498 281h399q53 0 78.5 37.5t25.5 119.5q0 170 -112 170h-391 v-327zM498 877h389q48 0 70 31.5t22 103.5t-22 103.5t-70 31.5h-389v-270z" />
<glyph unicode="C" horiz-adv-x="1204" d="M100 727q0 146 18 257.5t56 193t91.5 136t131.5 87.5t169 47t210 14q101 0 217.5 -14t196.5 -37l-64 -291q-109 39 -280 39q-59 0 -100 -2.5t-82.5 -10t-68.5 -21t-53 -36.5t-41 -54.5t-26.5 -76.5t-16.5 -102.5t-5 -132.5q0 -99 8.5 -169.5t30 -121t49.5 -80.5t76 -47 t100 -23t129 -6q68 0 148 11t132 28l64 -297q-180 -47 -414 -47q-142 0 -247 23t-188.5 75.5t-135 140t-78.5 215.5t-27 302z" />
<glyph unicode="D" horiz-adv-x="1542" d="M168 0v1427h596q142 0 246.5 -20t189 -68t136 -129t79 -202t27.5 -287t-27 -288t-79.5 -205.5t-136 -134t-189 -72t-246.5 -21.5h-596zM498 291h227q77 0 128 5.5t94.5 23t68.5 46t43 77.5t24.5 114t6.5 160q0 73 -3.5 127.5t-13 99t-22.5 74.5t-35.5 52.5t-47.5 35.5 t-64.5 20.5t-79.5 10t-99 2.5h-227v-848z" />
<glyph unicode="E" horiz-adv-x="1282" d="M168 0v1427h1065v-288h-735v-256h526v-283h-526v-311h735v-289h-1065z" />
<glyph unicode="F" horiz-adv-x="1208" d="M168 0v1427h1040v-288h-710v-332h526v-283h-526v-524h-330z" />
<glyph unicode="G" horiz-adv-x="1458" d="M100 727q0 173 31.5 300.5t89.5 210.5t150.5 133t203 70.5t259.5 20.5q105 0 236.5 -14.5t209.5 -36.5l-59 -291q-50 17 -164.5 29t-190.5 12q-84 0 -138 -5t-105 -21t-79.5 -45t-51 -78t-31 -119t-8.5 -170q0 -99 8.5 -169.5t30 -121t49.5 -80.5t76 -47t100 -23t129 -6 q33 0 135 11v299h-283v282h621v-829q-90 -28 -248 -48t-295 -20q-142 0 -247 23t-188.5 75.5t-135 140t-78.5 215.5t-27 302z" />
<glyph unicode="H" horiz-adv-x="1531" d="M168 0v1427h330v-520h536v520h330v-1427h-330v602h-536v-602h-330z" />
<glyph unicode="I" horiz-adv-x="665" d="M168 0v1427h330v-1427h-330z" />
<glyph unicode="J" horiz-adv-x="966" d="M6 25l55 294q112 -40 252 -40q160 0 160 167v981h334v-1034q0 -96 -26 -171t-69 -121.5t-103 -76.5t-122.5 -41.5t-134.5 -11.5q-189 0 -346 54z" />
<glyph unicode="K" horiz-adv-x="1400" d="M168 0v1427h330v-1427h-330zM500 754q67 54 206.5 236t294.5 437h394q-162 -251 -294.5 -426.5t-189.5 -228.5q60 -47 206 -251.5t317 -520.5h-398q-180 329 -326 527.5t-210 226.5z" />
<glyph unicode="L" horiz-adv-x="1132" d="M168 0v1427h330v-1136h643v-291h-973z" />
<glyph unicode="M" horiz-adv-x="1923" d="M168 0v1427h442q176 -352 367 -835q164 434 356 835h422v-1427h-319v965q-168 -371 -353 -846h-262q-241 637 -334 846v-965h-319z" />
<glyph unicode="N" horiz-adv-x="1630" d="M168 0v1427h430q281 -460 537 -940v940h327v-1427h-409q-242 448 -561 975v-975h-324z" />
<glyph unicode="O" horiz-adv-x="1587" d="M100 729q0 173 29 299t83 209.5t141 133.5t193 70.5t249 20.5t248.5 -20.5t192.5 -70.5t141 -133.5t83 -209.5t29 -299q0 -218 -43 -366t-133.5 -234t-215 -122t-302.5 -36q-179 0 -303.5 36t-215 122t-133.5 234t-43 366zM453 725q0 -104 5 -171.5t20 -121t37 -82.5 t63.5 -48t90.5 -24.5t126 -5.5t126 5.5t90.5 24.5t63.5 48t37 82.5t20 121t5 171.5q0 102 -4.5 168t-20.5 117t-37 78t-63.5 44.5t-90.5 22t-126 4.5t-126 -4.5t-90.5 -22t-63.5 -44.5t-37 -78t-20.5 -117t-4.5 -168z" />
<glyph unicode="P" horiz-adv-x="1400" d="M168 0v1427h797q391 0 391 -501q0 -99 -24 -184.5t-70.5 -153t-122 -106t-172.5 -38.5h-469v-444h-330zM498 717h352q143 0 143 209q0 114 -35 166.5t-104 52.5h-356v-428z" />
<glyph unicode="Q" horiz-adv-x="1601" d="M106 729q0 144 19.5 255.5t59.5 192.5t96.5 136t136.5 88t172.5 47t210.5 14q143 0 248.5 -20.5t192.5 -70.5t141 -133.5t83 -209.5t29 -299q0 -312 -92 -473t-277 -203q135 -43 420 -446h-381q-109 175 -202.5 265.5t-163.5 98.5q-142 0 -248.5 22.5t-192.5 75.5 t-140 140t-83 216t-29 304zM459 725q0 -104 5 -171.5t20 -121t37 -82.5t63.5 -48t90.5 -24.5t126 -5.5t126 5.5t90.5 24.5t63.5 48t37 82.5t20 121t5 171.5q0 102 -4.5 168t-20.5 117t-37 78t-63.5 44.5t-90.5 22t-126 4.5t-126 -4.5t-90.5 -22t-63.5 -44.5t-37 -78 t-20.5 -117t-4.5 -168z" />
<glyph unicode="R" horiz-adv-x="1478" d="M168 0v1427h797q107 0 184.5 -31.5t121.5 -89.5t64.5 -131t20.5 -165q0 -81 -18.5 -147.5t-58.5 -122.5t-111 -89.5t-169 -38.5q75 -27 175 -156t294 -456h-411q-163 287 -254 398.5t-158 111.5h-147v-510h-330zM498 780h366q57 0 91 43.5t34 134.5q0 94 -32 141.5 t-89 47.5h-370v-367z" />
<glyph unicode="S" horiz-adv-x="1273" d="M84 973q0 261 152.5 375t476.5 114q271 0 456 -67l-67 -283q-162 47 -391 47q-156 0 -215.5 -32t-59.5 -107q0 -48 20.5 -74t82.5 -44t186 -32q247 -28 359 -130t112 -304q0 -132 -35.5 -221t-115 -143.5t-195.5 -77.5t-287 -23q-272 0 -463 68l68 283q177 -48 391 -48 q161 0 221 29.5t60 110.5q0 49 -20.5 76.5t-88 49t-199.5 35.5q-235 25 -341.5 115t-106.5 283z" />
<glyph unicode="T" horiz-adv-x="1288" d="M2 1139v288h1284v-288h-475v-1139h-332v1139h-477z" />
<glyph unicode="U" horiz-adv-x="1525" d="M150 399v1028h333v-862q0 -39 0.5 -60.5t3 -52t8 -46.5t15 -38t23.5 -33t35 -23.5t48.5 -18.5t64 -10t81.5 -4q68 0 116 7t78.5 26.5t48 38t25.5 57.5t10 69.5t2 87.5v862h332v-1028q0 -101 -28.5 -176.5t-79 -123t-129 -76.5t-168 -40.5t-207.5 -11.5t-208 11.5 t-168.5 40.5t-128.5 76.5t-78.5 123t-28.5 176.5z" />
<glyph unicode="V" horiz-adv-x="1337" d="M-66 1427h365q88 -208 199.5 -525.5t177.5 -547.5q156 399 350 1073h352q-85 -293 -234.5 -706t-279.5 -721h-422q-107 354 -249 757t-259 670z" />
<glyph unicode="W" horiz-adv-x="2070" d="M-12 1427h358q71 -208 149 -486t132 -513q197 650 266 999h299q183 -617 266 -999q158 494 262 999h346q-68 -290 -186 -702t-221 -725h-422q-56 298 -195 862q-80 -368 -231 -862h-420q-87 361 -199 762t-204 665z" />
<glyph unicode="X" horiz-adv-x="1409" d="M-25 0q170 211 535 721q-360 491 -533 706h433q107 -141 309 -413q172 243 274 413h412q-159 -243 -479 -700q334 -473 504 -727h-416q-150 228 -297 434q-200 -269 -330 -434h-412z" />
<glyph unicode="Y" horiz-adv-x="1337" d="M-113 1427h439q185 -243 366 -505q252 355 340 505h408q-270 -413 -588 -845v-582h-330v580q-430 602 -635 847z" />
<glyph unicode="Z" d="M31 0v70q147 210 358 532t344 537h-661v288h1185v-65q-124 -214 -351.5 -561.5t-352.5 -511.5h700v-289h-1222z" />
<glyph unicode="[" horiz-adv-x="774" d="M188 -532v2078h625v-272h-299v-1536h299v-270h-625z" />
<glyph unicode="\" horiz-adv-x="997" d="M-41 1427h336l729 -1427h-334z" />
<glyph unicode="]" horiz-adv-x="774" d="M-39 -262h299v1536h-299v272h625v-2078h-625v270z" />
<glyph unicode="^" horiz-adv-x="1148" d="M31 606l393 821h295l399 -821h-340l-207 473l-204 -473h-336z" />
<glyph unicode="_" horiz-adv-x="1038" d="M55 -76h928v-301h-928v301z" />
<glyph unicode="`" horiz-adv-x="972" d="M180 1427h324l250 -264h-265z" />
<glyph unicode="a" horiz-adv-x="1165" d="M94 319q0 87 19.5 149t52 99.5t87 59t112.5 28.5t139 7q102 0 237 -27q0 58 -8 91t-34 56t-71.5 31t-123.5 8q-166 0 -326 -49l-49 250q215 55 451 55q243 0 351.5 -90t108.5 -317v-617q-104 -38 -241.5 -60t-255.5 -22q-134 0 -217 15.5t-136.5 56t-74.5 106t-21 170.5z M418 330q0 -79 28 -102t121 -23q98 0 174 28v199q-55 14 -170 14q-90 0 -121.5 -21t-31.5 -95z" />
<glyph unicode="b" horiz-adv-x="1220" d="M135 45v1434h316v-461q47 25 118 42t142 17q106 0 180 -25.5t128 -87t79.5 -167t25.5 -262.5q0 -214 -55.5 -338t-165 -175t-293.5 -51q-123 0 -256.5 21t-218.5 53zM451 250q73 -27 159 -27q49 0 79 6t55.5 23.5t38 52.5t19.5 88.5t7 134.5q0 164 -40.5 221.5 t-150.5 57.5q-72 0 -119.5 -20.5t-47.5 -53.5v-483z" />
<glyph unicode="c" horiz-adv-x="966" d="M94 530q0 156 37 264.5t108.5 169.5t162.5 87t214 26q86 0 178.5 -12t151.5 -33l-65 -266q-110 43 -238 43q-52 0 -84 -5t-63 -21t-47.5 -47t-26.5 -83t-10 -129q0 -91 13.5 -147.5t45 -86t70.5 -39t102 -9.5q127 0 238 47l65 -264q-60 -25 -153.5 -39.5t-176.5 -14.5 q-97 0 -174.5 16.5t-144 56.5t-110.5 103.5t-68.5 159.5t-24.5 223z" />
<glyph unicode="d" horiz-adv-x="1220" d="M94 528q0 154 32 263t93.5 170.5t139.5 88.5t180 27q125 0 231 -45v447h315v-1434q-87 -32 -220 -53t-255 -21q-138 0 -231.5 26.5t-159 90.5t-95.5 171.5t-30 268.5zM412 532q0 -127 19.5 -190.5t59 -84.5t119.5 -21q102 0 160 24v481q0 34 -47.5 57t-116.5 23 q-111 0 -152.5 -61.5t-41.5 -227.5z" />
<glyph unicode="e" horiz-adv-x="1138" d="M94 530q0 155 34 263t101 169.5t154 88t205 26.5q92 0 158.5 -10.5t124.5 -37t94.5 -73t60.5 -118.5q24 -71 32 -171q4 -52 4 -113q0 -57 -3 -122h-641q3 -120 56 -159.5t175 -39.5q59 0 146.5 10t144.5 25l47 -239q-77 -26 -183 -42t-196 -16q-116 0 -205.5 27.5 t-161 90t-109.5 173.5t-38 268zM420 664h364q-3 105 -40.5 140.5t-133.5 35.5q-97 0 -136.5 -37.5t-53.5 -138.5z" />
<glyph unicode="f" horiz-adv-x="792" d="M2 776v271h170v55q0 91 21.5 160t57.5 111t90 68.5t110.5 36t126.5 9.5q76 0 161.5 -13.5t145.5 -35.5l-68 -244q-89 27 -199 27q-70 0 -101.5 -33t-31.5 -107v-34h324v-271h-324v-776h-313v776h-170z" />
<glyph unicode="g" horiz-adv-x="1220" d="M94 516q0 160 30 268t95.5 173t159 92.5t231.5 27.5q123 0 256 -20.5t219 -52.5v-920q0 -88 -15 -159.5t-41.5 -123.5t-67.5 -90.5t-87.5 -63t-107.5 -39.5t-123 -20.5t-137 -5.5q-99 0 -204 17.5t-179 44.5l55 245q177 -47 322 -47q136 0 203 43t67 152 q-118 -60 -254 -60q-106 0 -180.5 25t-131 85t-83.5 166.5t-27 262.5zM412 522q0 -165 39.5 -222.5t150.5 -57.5q71 0 119.5 20t48.5 53v484q-69 28 -160 28q-49 0 -79 -6t-55 -23.5t-38 -52.5t-19.5 -88.5t-6.5 -134.5z" />
<glyph unicode="h" horiz-adv-x="1222" d="M135 0v1479h314v-467q150 65 280 65q73 0 125.5 -10.5t101 -41t78 -82t47 -135.5t17.5 -200v-608h-314v596q0 110 -43 156.5t-135 46.5q-65 0 -111 -17.5t-46 -48.5v-733h-314z" />
<glyph unicode="i" horiz-adv-x="581" d="M115 1354q0 94 36.5 121.5t141.5 27.5q104 0 141 -28t37 -121q0 -102 -37 -134t-141 -32q-105 0 -141.5 31.5t-36.5 134.5zM135 0v1049h316v-1049h-316z" />
<glyph unicode="j" horiz-adv-x="581" d="M-25 -162q81 0 120.5 36t39.5 114v1061h316v-1053q0 -229 -111 -320.5t-365 -91.5v254zM115 1354q0 94 36.5 121.5t141.5 27.5q104 0 141 -28t37 -121q0 -102 -37 -134t-141 -32q-105 0 -141.5 31.5t-36.5 134.5z" />
<glyph unicode="k" horiz-adv-x="1204" d="M135 0v1479h316v-924q90 83 362 494h363q-123 -189 -220 -314t-141 -162q42 -28 148 -179.5t243 -393.5h-364q-327 521 -391 555v-555h-316z" />
<glyph unicode="l" horiz-adv-x="598" d="M135 297v1182h316v-1174q0 -147 69 -254l-282 -102q-103 124 -103 348z" />
<glyph unicode="m" horiz-adv-x="1824" d="M135 0v983q259 94 520 94q173 0 263 -67q191 67 362 67q150 0 239.5 -45.5t135 -155t45.5 -296.5v-580h-314v555q0 144 -34 193t-140 49q-76 0 -157 -19q20 -92 20 -198v-580h-313v555q0 144 -34 193t-140 49q-72 0 -137 -19v-778h-316z" />
<glyph unicode="n" horiz-adv-x="1222" d="M135 0v983q109 40 254.5 67t278.5 27q112 0 190 -25t133.5 -82t82 -153.5t26.5 -236.5v-580h-316v555q0 145 -35 193.5t-149 48.5q-68 0 -149 -19v-778h-316z" />
<glyph unicode="o" horiz-adv-x="1208" d="M94 530q0 159 31.5 266t98 168.5t157 87t221.5 25.5q133 0 224.5 -25.5t158 -87t98 -168.5t31.5 -266q0 -160 -31 -268.5t-97.5 -172.5t-158.5 -91t-225 -27q-131 0 -222.5 27t-157.5 91t-97 172.5t-31 268.5zM412 524q0 -133 18 -198t56 -87t116 -22q80 0 118.5 22 t56.5 87t18 198q0 84 -6 137.5t-18 88.5t-37 52t-54 23t-78 6q-60 0 -92.5 -9t-57 -42t-32.5 -92.5t-8 -163.5z" />
<glyph unicode="p" horiz-adv-x="1220" d="M135 -393v1397q84 32 218 52.5t257 20.5q110 0 190.5 -16.5t143.5 -55t102 -102.5t58.5 -157.5t19.5 -221.5q0 -155 -32 -264.5t-93 -171.5t-139 -89.5t-180 -27.5q-122 0 -229 47v-411h-316zM451 309q0 -35 46 -57.5t115 -22.5q113 0 155 61t42 226q0 127 -19.5 191 t-59.5 86t-120 22q-96 0 -159 -24v-482z" />
<glyph unicode="q" horiz-adv-x="1220" d="M94 516q0 160 30 268t95.5 173t159 92.5t231.5 27.5q123 0 256 -20.5t219 -52.5v-1397h-315v428q-118 -64 -262 -64q-106 0 -180 26t-128.5 87.5t-80 168t-25.5 263.5zM412 522q0 -165 39.5 -222.5t150.5 -57.5q71 0 119.5 20t48.5 53v484q-69 28 -160 28q-49 0 -79 -6 t-55 -23.5t-38 -52.5t-19.5 -88.5t-6.5 -134.5z" />
<glyph unicode="r" horiz-adv-x="813" d="M135 0v1049h316v-82q63 110 254 110q49 0 104 -6v-293q-58 17 -147 17t-150 -28.5t-61 -78.5v-688h-316z" />
<glyph unicode="s" horiz-adv-x="991" d="M76 719q0 83 23.5 146.5t64 103t101 64.5t127 34.5t149.5 9.5q86 0 186 -15.5t172 -41.5l-61 -234q-160 45 -310 45q-82 0 -114.5 -16.5t-32.5 -73.5q0 -42 35 -58.5t155 -31.5q190 -24 271.5 -93.5t81.5 -225.5q0 -83 -24 -146.5t-65 -104t-101.5 -65.5t-128 -35 t-150.5 -10q-88 0 -195.5 16t-177.5 42l61 237q146 -43 297 -43q101 0 141 17t40 75q0 30 -16 47.5t-61 29.5t-132 20t-146 25.5t-103.5 51.5t-65.5 91t-21 139z" />
<glyph unicode="t" horiz-adv-x="874" d="M16 778v271h170v155l316 127v-282h327v-271h-327v-391q0 -82 30 -115.5t111 -33.5q82 0 168 28l51 -241q-128 -54 -315 -54q-92 0 -154.5 16t-111.5 57.5t-72 118t-23 191.5v424h-170z" />
<glyph unicode="u" horiz-adv-x="1222" d="M127 467v582h311v-557q0 -143 36.5 -192.5t150.5 -49.5q59 0 151 20v779h311v-986q-110 -39 -254.5 -66.5t-275.5 -27.5q-150 0 -242 46t-140 156t-48 296z" />
<glyph unicode="v" horiz-adv-x="1048" d="M-23 1047h318q121 -317 229 -728q151 432 224 728h313q-152 -518 -369 -1047h-375q-162 577 -340 1047z" />
<glyph unicode="w" horiz-adv-x="1716" d="M-25 1049h322q126 -339 219 -721q45 135 108 357.5t97 363.5h285q44 -138 102 -354t92 -367q153 447 215 721h316q-173 -589 -361 -1049h-377q-72 358 -137 608q-56 -263 -170 -608h-377q-140 517 -334 1049z" />
<glyph unicode="x" horiz-adv-x="1064" d="M-12 0q121 143 399 522q-227 321 -395 525h360q56 -70 205 -277q59 82 182 277h342q-111 -171 -356 -517q237 -338 358 -530h-346q-58 101 -188 287q-136 -186 -219 -287h-342z" />
<glyph unicode="y" horiz-adv-x="1048" d="M-23 1047h318q116 -303 229 -730q158 450 224 730h313q-161 -561 -399 -1110q-90 -211 -150 -330h-346q79 135 172 342q-143 520 -361 1098z" />
<glyph unicode="z" horiz-adv-x="1019" d="M20 0v51q130 173 279.5 394t212.5 333h-457v271h938v-52q-95 -158 -239.5 -373.5t-247.5 -353.5h463v-270h-949z" />
<glyph unicode="{" horiz-adv-x="774" d="M80 377v262q227 0 227 412q0 125 30 220.5t83.5 156t110.5 96t128 59.5l150 -233q-53 -20 -87 -45.5t-61.5 -72t-40 -121t-12.5 -183.5q0 -89 -12.5 -160.5t-31 -115.5t-44 -75.5t-47.5 -45.5t-45 -21q23 -7 45 -21.5t47.5 -47t44 -77.5t31 -117.5t12.5 -162.5 q0 -144 23 -229t63 -123.5t115 -67.5l-150 -227q-56 19 -102.5 43.5t-94.5 67.5t-80.5 98t-53.5 137.5t-21 183.5q0 118 -18 201.5t-51 127.5t-71 62.5t-87 18.5z" />
<glyph unicode="|" horiz-adv-x="821" d="M246 -524v2070h329v-2070h-329z" />
<glyph unicode="}" horiz-adv-x="774" d="M-33 -330q53 21 86.5 46.5t61 71.5t39.5 119.5t12 182.5q0 89 12.5 161t31 116t44 76t47.5 46t45 21q-23 7 -45 21.5t-47.5 46.5t-44 77t-31 117t-12.5 162q0 144 -23 229t-62.5 123.5t-113.5 67.5l148 229q71 -24 128 -59.5t110.5 -96t83.5 -156t30 -220.5 q0 -412 227 -412v-260q-227 0 -227 -410q0 -125 -30 -220.5t-83.5 -156t-110.5 -96t-128 -59.5z" />
<glyph unicode="~" horiz-adv-x="1153" d="M47 754q58 99 129 154t168 55q66 0 133.5 -26t113 -57t97.5 -57t92 -26q47 0 75.5 28.5t57.5 106.5l197 -158q-40 -106 -128 -177t-208 -71q-58 0 -120 26.5t-106.5 58.5t-98.5 58.5t-97 26.5q-39 0 -69 -25t-58 -91z" />
<glyph unicode="&#xa1;" horiz-adv-x="681" d="M150 895q0 113 39 147.5t151 34.5q109 0 147.5 -34.5t38.5 -147.5q0 -103 -38.5 -134.5t-147.5 -31.5q-112 0 -151 31t-39 135zM156 -362l73 944h228l73 -944h-374z" />
<glyph unicode="&#xa2;" horiz-adv-x="931" d="M92 774q0 135 27.5 235t81 162t122.5 96t160 46v219h240v-217q109 -10 195 -39l-64 -238q-54 22 -131 25v-588q75 3 131 29l64 -236q-68 -30 -195 -45v-243h-240v243q-92 14 -161.5 49.5t-122 99.5t-80 165t-27.5 237zM383 768q0 -111 24.5 -170.5t75.5 -83.5v512 q-51 -24 -75.5 -83t-24.5 -175z" />
<glyph unicode="&#xa3;" horiz-adv-x="1259" d="M61 573v261h115v131q0 253 141.5 375t454.5 122q263 0 457 -67l-68 -283q-162 47 -391 47q-105 0 -163 -18.5t-79.5 -53.5t-21.5 -98v-155h407v-261h-407v-284h672v-289h-1002v573h-115z" />
<glyph unicode="&#xa4;" horiz-adv-x="1409" d="M113 1247l293 180l131 -172q84 23 178 23q85 0 174 -21l110 170l293 -178l-127 -182q62 -124 62 -338q0 -218 -62 -342l142 -203l-293 -184l-127 190q-73 -20 -172 -20q-105 0 -178 23l-150 -193l-270 184l151 201q-63 120 -63 344q0 207 55 326zM508 723q0 -79 8 -131.5 t21.5 -85t40.5 -48.5t57 -21t80 -5t80 5t57 21t40.5 48.5t21.5 85t8 131.5q0 82 -8 135.5t-21 85.5t-41 47.5t-57 20t-80 4.5t-80 -4.5t-57 -20t-41 -47.5t-21 -85.5t-8 -135.5z" />
<glyph unicode="&#xa5;" horiz-adv-x="1337" d="M-113 1427h439q185 -243 366 -505q252 355 340 505h408q-203 -311 -463 -671h192v-224h-317v-139h317v-223h-317v-170h-330v170h-338v223h338v139h-338v224h211q-336 459 -508 671z" />
<glyph unicode="&#xa6;" horiz-adv-x="821" d="M246 227h329v-751h-329v751zM246 795v751h329v-751h-329z" />
<glyph unicode="&#xa7;" horiz-adv-x="1273" d="M72 541q0 142 92 252q-62 80 -62 208q0 240 157 350.5t462 110.5q117 0 232 -17.5t194 -47.5l-64 -264q-144 45 -364 45q-146 0 -203 -30.5t-57 -100.5q0 -46 19.5 -70t77 -40.5t175.5 -29.5q237 -27 357 -122.5t120 -278.5q0 -132 -100 -244q68 -83 68 -217 q0 -240 -156 -350.5t-461 -110.5q-255 0 -426 64l64 266q150 -47 364 -47q146 0 203 31.5t57 101.5q0 46 -20 70t-77 40t-175 29q-237 27 -357 122t-120 280zM401 561q0 -35 11 -56t46.5 -39t98 -29t170.5 -21q65 -6 111 -21q41 38 41 90q0 46 -22.5 71t-92.5 43.5 t-211 31.5q-62 3 -113 16q-39 -26 -39 -86z" />
<glyph unicode="&#xa8;" horiz-adv-x="1003" d="M115 1290q0 82 29 106.5t110 24.5q83 0 112 -24.5t29 -106.5q0 -89 -29.5 -117t-111.5 -28q-81 0 -110 28t-29 117zM575 1290q0 82 28.5 106.5t113.5 24.5q81 0 110 -24.5t29 -106.5q0 -89 -29 -117t-110 -28q-84 0 -113 27.5t-29 117.5z" />
<glyph unicode="&#xa9;" horiz-adv-x="1677" d="M106 729q0 172 31.5 299t89.5 210t150.5 133t203 70.5t259.5 20.5q147 0 257.5 -20.5t202.5 -70.5t150 -133t89.5 -210t31.5 -299q0 -175 -31 -304.5t-89 -216t-149.5 -139.5t-203 -75.5t-258.5 -22.5q-148 0 -259.5 22.5t-203.5 75.5t-150 139.5t-89.5 216t-31.5 304.5z M371 729q0 -118 9.5 -201.5t34 -144t57.5 -97t89 -57.5t119.5 -28.5t157.5 -7.5q95 0 158.5 7.5t120 28.5t89.5 57.5t57.5 97t34 144t9.5 201.5q0 86 -5.5 152t-18.5 118.5t-30.5 89.5t-47.5 64t-62.5 43t-82 25.5t-100.5 12.5t-122 3t-121.5 -3t-99.5 -12.5t-81.5 -25.5 t-62.5 -43t-47.5 -64t-30.5 -89.5t-18.5 -118.5t-5.5 -152zM477 723q0 105 16.5 179t47.5 122t84 75t116.5 37.5t155.5 10.5q154 0 260 -39l-53 -211q-79 27 -186 27q-52 0 -81.5 -6.5t-53 -28t-32 -62t-8.5 -108.5q0 -85 18.5 -129t54 -59t102.5 -15q110 0 186 29l53 -209 q-111 -43 -260 -43q-115 0 -188.5 17.5t-128.5 64.5t-79 131.5t-24 216.5z" />
<glyph unicode="&#xaa;" horiz-adv-x="921" d="M123 924q0 76 19.5 125.5t60.5 74t88.5 33t120.5 8.5q78 0 163 -16q0 78 -29.5 102.5t-133.5 24.5q-127 0 -228 -33l-34 180q164 39 315 39q171 0 252.5 -62.5t81.5 -215.5v-449q-72 -27 -173.5 -42t-187.5 -15q-185 0 -250 50t-65 196zM354 932q0 -53 20.5 -71.5 t82.5 -18.5q63 0 118 20v142q-39 10 -114 10q-61 0 -84 -15t-23 -67z" />
<glyph unicode="&#xab;" horiz-adv-x="1443" d="M47 651l555 586l180 -180l-319 -400l319 -407l-176 -184zM662 651l555 586l180 -180l-322 -400l322 -407l-178 -184z" />
<glyph unicode="&#xac;" horiz-adv-x="1087" d="M55 602v301h973v-903h-328v602h-645z" />
<glyph unicode="&#xad;" horiz-adv-x="649" d="M55 432v301h539v-301h-539z" />
<glyph unicode="&#xae;" horiz-adv-x="1173" d="M80 940q0 123 20.5 212t59 148.5t101.5 94.5t141.5 50t185.5 15t185 -15t141 -50t101.5 -94.5t58.5 -148.5t20 -212q0 -151 -29.5 -252.5t-94 -162t-156.5 -86t-226 -25.5q-135 0 -227 25.5t-157 86t-94.5 162t-29.5 252.5zM274 940q0 -108 15.5 -175t55 -106t95.5 -53 t148 -14q93 0 149.5 14t95.5 53.5t54.5 106t15.5 174.5q0 77 -6.5 131t-23 93.5t-39 63t-60.5 37.5t-80.5 18.5t-105.5 4.5q-62 0 -104.5 -4.5t-80 -18.5t-60 -37.5t-39.5 -62.5t-23.5 -93.5t-6.5 -131.5zM358 666v551h349q74 0 111.5 -51.5t37.5 -131.5q0 -90 -35 -125 t-108 -35q45 -21 75.5 -65.5t42.5 -142.5h-192q-4 58 -26.5 100.5t-43.5 42.5h-28v-143h-183zM541 975h92q35 0 35 49q0 47 -35 47h-92v-96z" />
<glyph unicode="&#xaf;" horiz-adv-x="1052" d="M238 1171v218h598v-218h-598z" />
<glyph unicode="&#xb0;" horiz-adv-x="917" d="M55 999q0 138 21 227t71.5 142t123.5 73.5t186 20.5q114 0 187 -20.5t123.5 -73.5t71.5 -141.5t21 -227.5q0 -141 -21 -233t-71 -148t-124 -79t-187 -23q-150 0 -235 43t-126 148t-41 292zM328 997q0 -115 12 -170t37.5 -73.5t79.5 -18.5q55 0 80.5 19t37 73t11.5 170 q0 112 -11.5 163.5t-36.5 68t-81 16.5q-55 0 -80 -16t-37 -68t-12 -164z" />
<glyph unicode="&#xb1;" horiz-adv-x="1153" d="M74 16v301h1003v-301h-1003zM74 760v301h350v350h301v-350h352v-301h-352v-350h-301v350h-350z" />
<glyph unicode="&#xb2;" horiz-adv-x="929" d="M74 549q8 132 39 218t87 141t150 98q16 7 48 20.5t46.5 20.5t36.5 19.5t32 23t18 26t8 33.5q0 44 -31.5 61t-116.5 17q-57 0 -131 -11t-119 -24l-41 225q54 19 142 31t172 12q196 0 291.5 -65.5t95.5 -218.5q0 -216 -162 -275q-22 -7 -51.5 -17t-46 -15.5l-39 -13 t-35 -12.5t-27.5 -12.5t-23 -13.5t-16 -14t-12 -16.5t-6 -18.5h420v-219h-729z" />
<glyph unicode="&#xb3;" horiz-adv-x="915" d="M92 553l39 211q37 -12 102 -19.5t115 -7.5q105 0 139.5 17t34.5 63q0 53 -24.5 70.5t-91.5 17.5h-130v199h125q63 0 85 16t22 60q0 40 -30.5 53.5t-131.5 13.5q-131 0 -211 -26l-39 206q132 33 301 33q204 0 299 -53.5t95 -179.5q0 -102 -45.5 -154t-161.5 -61 q123 -6 175 -63t52 -169q0 -140 -103.5 -199t-310.5 -59q-160 0 -305 31z" />
<glyph unicode="&#xb4;" horiz-adv-x="972" d="M180 1163l252 264h322l-308 -264h-266z" />
<glyph unicode="&#xb6;" horiz-adv-x="1400" d="M45 926q0 501 391 501h797v-1427h-285v444h-164v-444h-284v444h-66q-97 0 -172.5 38.5t-122 106t-70.5 153t-24 184.5z" />
<glyph unicode="&#xb7;" horiz-adv-x="643" d="M119 623q0 112 40.5 145t159.5 33q122 0 163.5 -33t41.5 -145q0 -121 -42 -159t-163 -38q-118 0 -159 38t-41 159z" />
<glyph unicode="&#xb8;" horiz-adv-x="1300" d="M524 -389l49 123q43 -19 127 -19q40 0 55 10.5t15 36.5q0 22 -15.5 33t-52.5 14t-98 -2l74 193h117v-80q110 0 162.5 -37.5t52.5 -124.5q0 -99 -65 -136.5t-228 -37.5q-119 0 -193 27z" />
<glyph unicode="&#xb9;" horiz-adv-x="813" d="M63 1270l521 211v-928h-256v582l-195 -80z" />
<glyph unicode="&#xba;" horiz-adv-x="962" d="M109 1057q0 220 93 312.5t277 92.5q189 0 282 -92.5t93 -312.5q0 -221 -93.5 -315.5t-281.5 -94.5q-185 0 -277.5 94.5t-92.5 315.5zM344 1053q0 -91 13 -137.5t41 -64t81 -17.5q80 0 108.5 43.5t28.5 175.5q0 95 -13.5 142.5t-41 63t-82.5 15.5q-54 0 -81 -15.5 t-40.5 -63t-13.5 -142.5z" />
<glyph unicode="&#xbb;" horiz-adv-x="1443" d="M49 248l320 399l-320 408l176 184l557 -588l-555 -583zM662 248l319 399l-319 408l178 184l557 -588l-555 -583z" />
<glyph unicode="&#xbc;" horiz-adv-x="1845" d="M20 1270l519 211v-928h-254v582l-197 -80zM213 0l920 1427h303l-920 -1427h-303zM928 186v115q179 305 393 598h328v-489h116v-224h-116v-186h-252v186h-469zM1206 410h191v284q-119 -155 -191 -284z" />
<glyph unicode="&#xbd;" horiz-adv-x="1845" d="M16 1270l519 211v-928h-254v582l-197 -80zM209 0l919 1427h304l-920 -1427h-303zM1067 0q12 194 73.5 293.5t202.5 163.5q15 7 55.5 24t55.5 25t38 23.5t31.5 32.5t8.5 38q0 44 -31.5 61t-116.5 17q-58 0 -131 -11t-118 -24l-41 225q53 19 140 31t171 12 q196 0 292.5 -65.5t96.5 -218.5q0 -216 -162 -275q-22 -7 -51.5 -16.5t-46.5 -15.5t-39 -13.5t-35 -12.5t-28 -12t-23.5 -13.5t-16.5 -14.5t-12 -16.5t-6 -18.5h422v-219h-729z" />
<glyph unicode="&#xbe;" horiz-adv-x="1845" d="M33 553l39 211q37 -12 102 -19.5t115 -7.5q107 0 141.5 17t34.5 63q0 53 -25 70.5t-94 17.5h-129v199h125q63 0 85 16t22 60q0 40 -30 53.5t-130 13.5q-130 0 -213 -26l-37 206q132 33 301 33q203 0 297 -53.5t94 -179.5q0 -102 -45 -154t-160 -61q123 -6 174.5 -63 t51.5 -169q0 -139 -103 -198.5t-309 -59.5q-162 0 -307 31zM350 0l918 1427h303l-920 -1427h-301zM973 186v115q179 305 393 598h328v-489h114v-224h-114v-186h-252v186h-469zM1251 410h191v284q-111 -141 -191 -284z" />
<glyph unicode="&#xbf;" horiz-adv-x="1036" d="M39 25q0 81 25 158.5t74.5 150.5t107 136t137.5 136h315q-77 -90 -122 -150t-85 -130.5t-56.5 -139.5t-16.5 -149q0 -64 52 -98.5t173 -34.5q196 0 299 39l64 -291q-75 -22 -189 -36.5t-207 -14.5q-305 0 -438 101.5t-133 322.5zM346 895q0 59 9 94t33.5 54.5t57.5 25.5 t91 6q56 0 88.5 -6t56 -25.5t32.5 -54.5t9 -94q0 -103 -38.5 -134.5t-147.5 -31.5q-112 0 -151.5 31t-39.5 135z" />
<glyph unicode="&#xc0;" horiz-adv-x="1411" d="M-41 0q89 297 235.5 710.5t270.5 716.5h510q102 -338 245 -744t257 -683h-365q-62 148 -121 315h-588q-29 -94 -92 -315h-352zM330 1794h327l265 -264h-271zM487 600h410q-103 305 -170 541h-53q-79 -216 -187 -541z" />
<glyph unicode="&#xc1;" horiz-adv-x="1411" d="M-41 0q89 297 235.5 710.5t270.5 716.5h510q102 -338 245 -744t257 -683h-365q-62 148 -121 315h-588q-29 -94 -92 -315h-352zM483 1530l260 264h326l-319 -264h-267zM487 600h410q-103 305 -170 541h-53q-79 -216 -187 -541z" />
<glyph unicode="&#xc2;" horiz-adv-x="1411" d="M-41 0q89 297 235.5 710.5t270.5 716.5h510q102 -338 245 -744t257 -683h-365q-62 148 -121 315h-588q-29 -94 -92 -315h-352zM307 1530l250 264h301l258 -264h-274l-137 147l-132 -147h-266zM487 600h410q-103 305 -170 541h-53q-79 -216 -187 -541z" />
<glyph unicode="&#xc3;" horiz-adv-x="1411" d="M-41 0q89 297 235.5 710.5t270.5 716.5h510q102 -338 245 -744t257 -683h-365q-62 148 -121 315h-588q-29 -94 -92 -315h-352zM307 1636q91 162 225 162q64 0 120.5 -23t102 -46t83.5 -23q36 0 57.5 22t44.5 84l147 -118q-30 -84 -97 -138.5t-159 -54.5q-55 0 -107 24 t-98.5 48t-86.5 24q-30 0 -53 -20.5t-46 -71.5zM487 600h410q-103 305 -170 541h-53q-79 -216 -187 -541z" />
<glyph unicode="&#xc4;" horiz-adv-x="1411" d="M-41 0q89 297 235.5 710.5t270.5 716.5h510q102 -338 245 -744t257 -683h-365q-62 148 -121 315h-588q-29 -94 -92 -315h-352zM334 1657q0 82 28 105.5t111 23.5t112 -23.5t29 -105.5q0 -91 -29 -118.5t-112 -27.5q-82 0 -110.5 27.5t-28.5 118.5zM487 600h410 q-103 305 -170 541h-53q-79 -216 -187 -541zM795 1657q0 82 28 105.5t113 23.5q82 0 110.5 -24t28.5 -105q0 -91 -29 -118.5t-110 -27.5q-84 0 -112.5 27.5t-28.5 118.5z" />
<glyph unicode="&#xc5;" horiz-adv-x="1411" d="M-41 0q89 297 235.5 710.5t270.5 716.5h510q102 -338 245 -744t257 -683h-365q-62 148 -121 315h-588q-29 -94 -92 -315h-352zM451 1636q0 116 58.5 160.5t197.5 44.5q133 0 192 -45t59 -160t-58.5 -159.5t-192.5 -44.5q-135 0 -195.5 44.5t-60.5 159.5zM487 600h410 q-103 305 -170 541h-53q-79 -216 -187 -541zM610 1634q0 -45 19.5 -62.5t77.5 -17.5q56 0 75 18t19 62q0 45 -19 62.5t-75 17.5q-58 0 -77.5 -17.5t-19.5 -62.5z" />
<glyph unicode="&#xc6;" horiz-adv-x="1990" d="M-322 0q194 302 481 715.5t511 711.5h1272v-288h-734v-256h428v-283h-428v-311h734v-289h-1063v315h-605q-53 -82 -198 -315h-398zM459 600h420v541h-52q-173 -245 -368 -541z" />
<glyph unicode="&#xc7;" horiz-adv-x="1204" d="M100 727q0 146 18 257.5t56 193t91.5 136t131.5 87.5t169 47t210 14q101 0 217.5 -14t196.5 -37l-64 -291q-109 39 -280 39q-59 0 -100 -2.5t-82.5 -10t-68.5 -21t-53 -36.5t-41 -54.5t-26.5 -76.5t-16.5 -102.5t-5 -132.5q0 -99 8.5 -169.5t30 -121t49.5 -80.5t76 -47 t100 -23t129 -6q68 0 148 11t132 28l64 -297q-168 -44 -389 -47v-51q110 0 162.5 -37.5t52.5 -124.5q0 -99 -65 -136.5t-228 -37.5q-119 0 -193 27l50 123q43 -19 127 -19q39 0 54 10.5t15 36.5q0 22 -15.5 33t-52.5 14t-98 -2l64 168q-150 10 -254.5 53t-177.5 131 t-107.5 227.5t-34.5 340.5z" />
<glyph unicode="&#xc8;" horiz-adv-x="1282" d="M168 0v1427h1065v-288h-735v-256h526v-283h-526v-311h735v-289h-1065zM395 1794h328l264 -264h-270z" />
<glyph unicode="&#xc9;" horiz-adv-x="1282" d="M168 0v1427h1065v-288h-735v-256h526v-283h-526v-311h735v-289h-1065zM502 1530l260 264h325l-319 -264h-266z" />
<glyph unicode="&#xca;" horiz-adv-x="1282" d="M168 0v1427h1065v-288h-735v-256h526v-283h-526v-311h735v-289h-1065zM313 1530l250 264h301l258 -264h-274l-137 147l-131 -147h-267z" />
<glyph unicode="&#xcb;" horiz-adv-x="1282" d="M168 0v1427h1065v-288h-735v-256h526v-283h-526v-311h735v-289h-1065zM340 1657q0 82 28 105.5t111 23.5q84 0 113 -24t29 -105q0 -91 -29.5 -118.5t-112.5 -27.5q-82 0 -110.5 27.5t-28.5 118.5zM801 1657q0 82 28 105.5t113 23.5q82 0 110.5 -24t28.5 -105 q0 -91 -29 -118.5t-110 -27.5q-84 0 -112.5 27.5t-28.5 118.5z" />
<glyph unicode="&#xcc;" horiz-adv-x="665" d="M-59 1794h327l264 -264h-270zM168 0v1427h330v-1427h-330z" />
<glyph unicode="&#xcd;" horiz-adv-x="665" d="M141 1530l260 264h326l-319 -264h-267zM168 0v1427h330v-1427h-330z" />
<glyph unicode="&#xce;" horiz-adv-x="665" d="M-70 1530l250 264h301l258 -264h-274l-137 147l-131 -147h-267zM168 0v1427h330v-1427h-330z" />
<glyph unicode="&#xcf;" horiz-adv-x="665" d="M-35 1657q0 82 28 105.5t111 23.5q84 0 113 -24t29 -105q0 -91 -29.5 -118.5t-112.5 -27.5q-82 0 -110.5 27.5t-28.5 118.5zM168 0v1427h330v-1427h-330zM426 1657q0 82 28 105.5t113 23.5q82 0 111 -24t29 -105q0 -90 -29.5 -118t-110.5 -28q-84 0 -112.5 27.5 t-28.5 118.5z" />
<glyph unicode="&#xd0;" horiz-adv-x="1542" d="M61 614v226h107v587h596q142 0 246.5 -20t189 -68t136 -129t79 -202t27.5 -287t-27 -288t-79.5 -205.5t-136 -134t-189 -72t-246.5 -21.5h-596v614h-107zM498 291h227q77 0 128 5.5t94.5 23t68.5 46t43 77.5t24.5 114t6.5 160q0 73 -3.5 127.5t-13 98.5t-22 74 t-35.5 52.5t-48 35t-64.5 20t-79.5 10t-99 2.5h-227v-297h323v-226h-323v-323z" />
<glyph unicode="&#xd1;" horiz-adv-x="1630" d="M168 0v1427h430q281 -460 537 -940v940h327v-1427h-409q-242 448 -561 975v-975h-324zM426 1636q91 162 225 162q51 0 97.5 -14.5t76 -31.5t65 -31.5t66.5 -14.5q36 0 58 22t45 84l147 -118q-30 -84 -97 -138.5t-159 -54.5q-55 0 -107.5 24t-99 48t-86.5 24 q-30 0 -52.5 -20.5t-45.5 -71.5z" />
<glyph unicode="&#xd2;" horiz-adv-x="1587" d="M100 729q0 173 29 299t83 209.5t141 133.5t193 70.5t249 20.5t248.5 -20.5t192.5 -70.5t141 -133.5t83 -209.5t29 -299q0 -218 -43 -366t-133.5 -234t-215 -122t-302.5 -36q-179 0 -303.5 36t-215 122t-133.5 234t-43 366zM420 1794h328l264 -264h-271zM453 725 q0 -104 5 -171.5t20 -121t37 -82.5t63.5 -48t90.5 -24.5t126 -5.5t126 5.5t90.5 24.5t63.5 48t37 82.5t20 121t5 171.5q0 102 -4.5 168t-20.5 117t-37 78t-63.5 44.5t-90.5 22t-126 4.5t-126 -4.5t-90.5 -22t-63.5 -44.5t-37 -78t-20.5 -117t-4.5 -168z" />
<glyph unicode="&#xd3;" horiz-adv-x="1587" d="M100 729q0 173 29 299t83 209.5t141 133.5t193 70.5t249 20.5t248.5 -20.5t192.5 -70.5t141 -133.5t83 -209.5t29 -299q0 -218 -43 -366t-133.5 -234t-215 -122t-302.5 -36q-179 0 -303.5 36t-215 122t-133.5 234t-43 366zM453 725q0 -104 5 -171.5t20 -121t37 -82.5 t63.5 -48t90.5 -24.5t126 -5.5t126 5.5t90.5 24.5t63.5 48t37 82.5t20 121t5 171.5q0 102 -4.5 168t-20.5 117t-37 78t-63.5 44.5t-90.5 22t-126 4.5t-126 -4.5t-90.5 -22t-63.5 -44.5t-37 -78t-20.5 -117t-4.5 -168zM502 1530l260 264h325l-319 -264h-266z" />
<glyph unicode="&#xd4;" horiz-adv-x="1587" d="M100 729q0 173 29 299t83 209.5t141 133.5t193 70.5t249 20.5t248.5 -20.5t192.5 -70.5t141 -133.5t83 -209.5t29 -299q0 -218 -43 -366t-133.5 -234t-215 -122t-302.5 -36q-179 0 -303.5 36t-215 122t-133.5 234t-43 366zM387 1530l250 264h301l258 -264h-274l-138 147 l-131 -147h-266zM453 725q0 -104 5 -171.5t20 -121t37 -82.5t63.5 -48t90.5 -24.5t126 -5.5t126 5.5t90.5 24.5t63.5 48t37 82.5t20 121t5 171.5q0 102 -4.5 168t-20.5 117t-37 78t-63.5 44.5t-90.5 22t-126 4.5t-126 -4.5t-90.5 -22t-63.5 -44.5t-37 -78t-20.5 -117 t-4.5 -168z" />
<glyph unicode="&#xd5;" horiz-adv-x="1587" d="M100 729q0 173 29 299t83 209.5t141 133.5t193 70.5t249 20.5t248.5 -20.5t192.5 -70.5t141 -133.5t83 -209.5t29 -299q0 -218 -43 -366t-133.5 -234t-215 -122t-302.5 -36q-179 0 -303.5 36t-215 122t-133.5 234t-43 366zM403 1636q91 162 226 162q51 0 97.5 -14.5 t76 -31.5t65 -31.5t66.5 -14.5q36 0 57.5 22t44.5 84l148 -118q-30 -84 -97 -138.5t-159 -54.5q-55 0 -107.5 24t-99 48t-86.5 24q-30 0 -52.5 -20.5t-45.5 -71.5zM453 725q0 -104 5 -171.5t20 -121t37 -82.5t63.5 -48t90.5 -24.5t126 -5.5t126 5.5t90.5 24.5t63.5 48 t37 82.5t20 121t5 171.5q0 102 -4.5 168t-20.5 117t-37 78t-63.5 44.5t-90.5 22t-126 4.5t-126 -4.5t-90.5 -22t-63.5 -44.5t-37 -78t-20.5 -117t-4.5 -168z" />
<glyph unicode="&#xd6;" horiz-adv-x="1587" d="M100 729q0 173 29 299t83 209.5t141 133.5t193 70.5t249 20.5t248.5 -20.5t192.5 -70.5t141 -133.5t83 -209.5t29 -299q0 -218 -43 -366t-133.5 -234t-215 -122t-302.5 -36q-179 0 -303.5 36t-215 122t-133.5 234t-43 366zM420 1657q0 82 28 105.5t111 23.5t112 -23.5 t29 -105.5q0 -91 -29 -118.5t-112 -27.5q-82 0 -110.5 27.5t-28.5 118.5zM453 725q0 -104 5 -171.5t20 -121t37 -82.5t63.5 -48t90.5 -24.5t126 -5.5t126 5.5t90.5 24.5t63.5 48t37 82.5t20 121t5 171.5q0 102 -4.5 168t-20.5 117t-37 78t-63.5 44.5t-90.5 22t-126 4.5 t-126 -4.5t-90.5 -22t-63.5 -44.5t-37 -78t-20.5 -117t-4.5 -168zM881 1657q0 82 28 105.5t113 23.5q82 0 110.5 -24t28.5 -105q0 -91 -29 -118.5t-110 -27.5q-84 0 -112.5 27.5t-28.5 118.5z" />
<glyph unicode="&#xd7;" horiz-adv-x="1153" d="M113 993l215 213l245 -248l248 250l215 -215l-250 -248l248 -247l-211 -213l-248 247l-247 -247l-213 213l247 247z" />
<glyph unicode="&#xd8;" horiz-adv-x="1587" d="M6 0q27 32 94 106.5t101 116.5q-103 177 -103 506q0 173 29 299t83.5 209.5t141.5 133.5t193.5 70.5t249.5 20.5q266 0 417 -84q7 8 20.5 24.5t20.5 24.5h336q-33 -38 -98 -111.5t-98 -111.5q94 -166 94 -475q0 -175 -28.5 -304.5t-82.5 -216.5t-140.5 -139.5t-192.5 -75 t-248 -22.5q-259 0 -410 80q-42 -48 -45 -51h-334zM453 735q0 -8 1 -26t1 -27q3 -98 14 -156q43 50 232 267t290 335q-63 31 -196 31q-69 0 -114.5 -4t-85.5 -17t-63.5 -34.5t-41 -58.5t-25 -87.5t-10.5 -123.5q0 -15 -1 -48t-1 -51zM606 301q57 -29 189 -29q104 0 163 12 t100.5 51t57.5 106t19 182v145q-3 72 -15 125q-384 -439 -514 -592z" />
<glyph unicode="&#xd9;" horiz-adv-x="1525" d="M150 399v1028h333v-862q0 -39 0.5 -60.5t3 -52t8 -46.5t15 -38t23.5 -33t35 -23.5t48.5 -18.5t64 -10t81.5 -4q68 0 116 7t78.5 26.5t48 38t25.5 57.5t10 69.5t2 87.5v862h332v-1028q0 -101 -28.5 -176.5t-79 -123t-129 -76.5t-168 -40.5t-207.5 -11.5t-208 11.5 t-168.5 40.5t-128.5 76.5t-78.5 123t-28.5 176.5zM414 1794h327l265 -264h-271z" />
<glyph unicode="&#xda;" horiz-adv-x="1525" d="M150 399v1028h333v-862q0 -39 0.5 -60.5t3 -52t8 -46.5t15 -38t23.5 -33t35 -23.5t48.5 -18.5t64 -10t81.5 -4q68 0 116 7t78.5 26.5t48 38t25.5 57.5t10 69.5t2 87.5v862h332v-1028q0 -101 -28.5 -176.5t-79 -123t-129 -76.5t-168 -40.5t-207.5 -11.5t-208 11.5 t-168.5 40.5t-128.5 76.5t-78.5 123t-28.5 176.5zM522 1530l260 264h326l-320 -264h-266z" />
<glyph unicode="&#xdb;" horiz-adv-x="1525" d="M150 399v1028h333v-862q0 -39 0.5 -60.5t3 -52t8 -46.5t15 -38t23.5 -33t35 -23.5t48.5 -18.5t64 -10t81.5 -4q68 0 116 7t78.5 26.5t48 38t25.5 57.5t10 69.5t2 87.5v862h332v-1028q0 -101 -28.5 -176.5t-79 -123t-129 -76.5t-168 -40.5t-207.5 -11.5t-208 11.5 t-168.5 40.5t-128.5 76.5t-78.5 123t-28.5 176.5zM352 1530l250 264h301l258 -264h-274l-137 147l-132 -147h-266z" />
<glyph unicode="&#xdc;" horiz-adv-x="1525" d="M150 399v1028h333v-862q0 -39 0.5 -60.5t3 -52t8 -46.5t15 -38t23.5 -33t35 -23.5t48.5 -18.5t64 -10t81.5 -4q68 0 116 7t78.5 26.5t48 38t25.5 57.5t10 69.5t2 87.5v862h332v-1028q0 -101 -28.5 -176.5t-79 -123t-129 -76.5t-168 -40.5t-207.5 -11.5t-208 11.5 t-168.5 40.5t-128.5 76.5t-78.5 123t-28.5 176.5zM387 1657q0 82 28 105.5t111 23.5q84 0 113 -24t29 -105q0 -91 -29.5 -118.5t-112.5 -27.5q-82 0 -110.5 27.5t-28.5 118.5zM848 1657q0 82 28 105.5t113 23.5q82 0 110.5 -24t28.5 -105q0 -91 -29 -118.5t-110 -27.5 q-84 0 -112.5 27.5t-28.5 118.5z" />
<glyph unicode="&#xdd;" horiz-adv-x="1337" d="M-113 1427h439q185 -243 366 -505q252 355 340 505h408q-270 -413 -588 -845v-582h-330v580q-430 602 -635 847zM477 1530l260 264h326l-320 -264h-266z" />
<glyph unicode="&#xde;" horiz-adv-x="1400" d="M168 0v1427h330v-196h467q391 0 391 -502q0 -99 -24 -184t-70.5 -152t-122 -105t-172.5 -38h-469v-250h-330zM498 520h352q145 0 145 209q0 219 -141 219h-356v-428z" />
<glyph unicode="&#xdf;" horiz-adv-x="1378" d="M135 0v1071q0 109 37 186t110.5 121.5t170.5 64t229 19.5q309 0 440 -83.5t131 -286.5q0 -80 -12 -135t-44 -101t-93.5 -71.5t-155.5 -32.5q99 -4 165.5 -30.5t103 -76t51 -111.5t14.5 -151q0 -228 -132.5 -320t-447.5 -92q-80 0 -159 9l37 268q78 -8 139 -8 q129 0 174 39t45 139q0 111 -47.5 153.5t-159.5 42.5h-94v254h86q112 0 154.5 41t42.5 125q0 88 -50.5 120t-189.5 32q-117 0 -173 -45t-56 -125v-1016h-316z" />
<glyph unicode="&#xe0;" horiz-adv-x="1165" d="M94 319q0 87 19.5 149t52 99.5t87 59t112.5 28.5t139 7q102 0 237 -27q0 58 -8 91t-34 56t-71.5 31t-123.5 8q-166 0 -326 -49l-49 250q215 55 451 55q243 0 351.5 -90t108.5 -317v-617q-104 -38 -241.5 -60t-255.5 -22q-134 0 -217 15.5t-136.5 56t-74.5 106t-21 170.5z M203 1427h323l250 -264h-264zM418 330q0 -79 28 -102t121 -23q98 0 174 28v199q-55 14 -170 14q-90 0 -121.5 -21t-31.5 -95z" />
<glyph unicode="&#xe1;" horiz-adv-x="1165" d="M94 319q0 87 19.5 149t52 99.5t87 59t112.5 28.5t139 7q102 0 237 -27q0 58 -8 91t-34 56t-71.5 31t-123.5 8q-166 0 -326 -49l-49 250q215 55 451 55q243 0 351.5 -90t108.5 -317v-617q-104 -38 -241.5 -60t-255.5 -22q-134 0 -217 15.5t-136.5 56t-74.5 106t-21 170.5z M377 1163l252 264h321l-307 -264h-266zM418 330q0 -79 28 -102t121 -23q98 0 174 28v199q-55 14 -170 14q-90 0 -121.5 -21t-31.5 -95z" />
<glyph unicode="&#xe2;" horiz-adv-x="1165" d="M94 319q0 87 19.5 149t52 99.5t87 59t112.5 28.5t139 7q102 0 237 -27q0 58 -8 91t-34 56t-71.5 31t-123.5 8q-166 0 -326 -49l-49 250q215 55 451 55q243 0 351.5 -90t108.5 -317v-617q-104 -38 -241.5 -60t-255.5 -22q-134 0 -217 15.5t-136.5 56t-74.5 106t-21 170.5z M180 1163q42 44 125 132t125 132h301l258 -264h-274q-22 24 -135 146q-23 -25 -66.5 -74.5t-64.5 -71.5h-269zM418 330q0 -79 28 -102t121 -23q98 0 174 28v199q-55 14 -170 14q-90 0 -121.5 -21t-31.5 -95z" />
<glyph unicode="&#xe3;" horiz-adv-x="1165" d="M94 319q0 87 19.5 149t52 99.5t87 59t112.5 28.5t139 7q102 0 237 -27q0 58 -8 91t-34 56t-71.5 31t-123.5 8q-166 0 -326 -49l-49 250q215 55 451 55q243 0 351.5 -90t108.5 -317v-617q-104 -38 -241.5 -60t-255.5 -22q-134 0 -217 15.5t-136.5 56t-74.5 106t-21 170.5z M176 1274q92 164 227 164q51 0 97.5 -15t74 -32.5t62 -32.5t65.5 -15q36 0 58 22.5t45 84.5l147 -119q-32 -85 -96.5 -138.5t-157.5 -53.5q-55 0 -106 24t-96.5 48t-85.5 24q-30 0 -53.5 -21t-45.5 -73zM418 330q0 -79 28 -102t121 -23q98 0 174 28v199q-55 14 -170 14 q-90 0 -121.5 -21t-31.5 -95z" />
<glyph unicode="&#xe4;" horiz-adv-x="1165" d="M94 319q0 87 19.5 149t52 99.5t87 59t112.5 28.5t139 7q102 0 237 -27q0 58 -8 91t-34 56t-71.5 31t-123.5 8q-166 0 -326 -49l-49 250q215 55 451 55q243 0 351.5 -90t108.5 -317v-617q-104 -38 -241.5 -60t-255.5 -22q-134 0 -217 15.5t-136.5 56t-74.5 106t-21 170.5z M197 1290q0 82 29 106.5t110 24.5q83 0 112 -24.5t29 -106.5q0 -89 -29.5 -117t-111.5 -28q-81 0 -110 28t-29 117zM418 330q0 -79 28 -102t121 -23q98 0 174 28v199q-55 14 -170 14q-90 0 -121.5 -21t-31.5 -95zM657 1290q0 82 28.5 106.5t113.5 24.5q81 0 110 -24.5 t29 -106.5q0 -89 -29 -117t-110 -28q-84 0 -113 27.5t-29 117.5z" />
<glyph unicode="&#xe5;" horiz-adv-x="1165" d="M94 319q0 87 19.5 149t52 99.5t87 59t112.5 28.5t139 7q102 0 237 -27q0 58 -8 91t-34 56t-71.5 31t-123.5 8q-166 0 -326 -49l-49 250q215 55 451 55q243 0 351.5 -90t108.5 -317v-617q-104 -38 -241.5 -60t-255.5 -22q-134 0 -217 15.5t-136.5 56t-74.5 106t-21 170.5z M324 1315q0 116 58.5 160.5t197.5 44.5q133 0 192 -45t59 -160t-59 -160t-192 -45q-135 0 -195.5 45t-60.5 160zM418 330q0 -79 28 -102t121 -23q98 0 174 28v199q-55 14 -170 14q-90 0 -121.5 -21t-31.5 -95zM483 1313q0 -44 19.5 -61t77.5 -17q56 0 75 17.5t19 60.5 q0 46 -18.5 63t-75.5 17q-58 0 -77.5 -17.5t-19.5 -62.5z" />
<glyph unicode="&#xe6;" horiz-adv-x="1767" d="M94 319q0 87 19.5 149t52 99.5t87 59t112.5 28.5t139 7q102 0 237 -27q0 47 -5 75t-18 50.5t-40.5 33t-68 16t-105.5 5.5q-186 0 -326 -43l-49 250q215 55 451 55q121 0 200 -22t129 -72q97 94 308 94q111 0 186.5 -15.5t137.5 -56.5t95.5 -113.5t47 -185.5t4.5 -274 h-641q3 -120 56 -159.5t175 -39.5q60 0 148 10.5t143 24.5l49 -239q-79 -26 -184 -42t-195 -16q-177 0 -285 64q-85 -30 -198 -47t-213 -17q-134 0 -217 15.5t-136.5 56t-74.5 106t-21 170.5zM422 330q0 -78 26.5 -101.5t120.5 -23.5q45 0 108.5 11.5t92.5 25.5 q-33 83 -33 190q-55 14 -162 14q-91 0 -122 -20.5t-31 -95.5zM1049 664h364q-3 106 -40 141t-132 35q-97 0 -138 -37t-54 -139z" />
<glyph unicode="&#xe7;" horiz-adv-x="966" d="M94 530q0 156 37 264.5t108.5 169.5t162.5 87t214 26q86 0 178.5 -12t151.5 -33l-65 -266q-110 43 -238 43q-52 0 -84 -5t-63 -21t-47.5 -47t-26.5 -83t-10 -129q0 -91 13.5 -147.5t45 -86t70.5 -39t102 -9.5q127 0 238 47l65 -264q-122 -50 -309 -54v-51 q110 0 162.5 -37.5t52.5 -124.5q0 -99 -65 -136.5t-228 -37.5q-119 0 -192 27l49 123q43 -19 127 -19q39 0 54 10.5t15 36.5q0 22 -15.5 33t-52.5 14t-98 -2l64 170q-202 21 -309 150.5t-107 402.5z" />
<glyph unicode="&#xe8;" horiz-adv-x="1138" d="M94 530q0 155 34 263t101 169.5t154 88t205 26.5q92 0 158.5 -10.5t124.5 -37t94.5 -73t61 -118t32 -171.5t0.5 -235h-641q3 -120 56 -159.5t175 -39.5q59 0 146.5 10t144.5 25l47 -239q-77 -26 -183 -42t-196 -16q-116 0 -205.5 27.5t-161 90t-109.5 173.5t-38 268z M238 1427h323l250 -264h-264zM420 664h364q-3 105 -40.5 140.5t-133.5 35.5q-97 0 -136.5 -37.5t-53.5 -138.5z" />
<glyph unicode="&#xe9;" horiz-adv-x="1138" d="M94 530q0 155 34 263t101 169.5t154 88t205 26.5q92 0 158.5 -10.5t124.5 -37t94.5 -73t61 -118t32 -171.5t0.5 -235h-641q3 -120 56 -159.5t175 -39.5q59 0 146.5 10t144.5 25l47 -239q-77 -26 -183 -42t-196 -16q-116 0 -205.5 27.5t-161 90t-109.5 173.5t-38 268z M401 1163l252 264h322l-307 -264h-267zM420 664h364q-3 105 -40.5 140.5t-133.5 35.5q-97 0 -136.5 -37.5t-53.5 -138.5z" />
<glyph unicode="&#xea;" horiz-adv-x="1138" d="M94 530q0 155 34 263t101 169.5t154 88t205 26.5q92 0 158.5 -10.5t124.5 -37t94.5 -73t61 -118t32 -171.5t0.5 -235h-641q3 -120 56 -159.5t175 -39.5q59 0 146.5 10t144.5 25l47 -239q-77 -26 -183 -42t-196 -16q-116 0 -205.5 27.5t-161 90t-109.5 173.5t-38 268z M205 1163q42 44 125 132t125 132h301l258 -264h-275q-22 24 -135 146q-23 -25 -66.5 -74.5t-64.5 -71.5h-268zM420 664h364q-3 105 -40.5 140.5t-133.5 35.5q-97 0 -136.5 -37.5t-53.5 -138.5z" />
<glyph unicode="&#xeb;" horiz-adv-x="1138" d="M94 530q0 155 34 263t101 169.5t154 88t205 26.5q92 0 158.5 -10.5t124.5 -37t94.5 -73t61 -118t32 -171.5t0.5 -235h-641q3 -120 56 -159.5t175 -39.5q59 0 146.5 10t144.5 25l47 -239q-77 -26 -183 -42t-196 -16q-116 0 -205.5 27.5t-161 90t-109.5 173.5t-38 268z M233 1290q0 82 29 106.5t111 24.5q83 0 112 -24.5t29 -106.5q0 -89 -29.5 -117t-111.5 -28q-81 0 -110.5 28t-29.5 117zM420 664h364q-3 105 -40.5 140.5t-133.5 35.5q-97 0 -136.5 -37.5t-53.5 -138.5zM694 1290q0 82 28.5 106.5t113.5 24.5q81 0 110 -24.5t29 -106.5 q0 -89 -29 -117t-110 -28q-84 0 -113 27.5t-29 117.5z" />
<glyph unicode="&#xec;" horiz-adv-x="581" d="M-82 1427h324l250 -264h-265zM135 0v1049h316v-1049h-316z" />
<glyph unicode="&#xed;" horiz-adv-x="581" d="M82 1163l252 264h321l-307 -264h-266zM135 0v1049h316v-1049h-316z" />
<glyph unicode="&#xee;" horiz-adv-x="581" d="M-111 1163q42 44 125 132t125 132h301l258 -264h-274q-22 24 -135 146q-23 -25 -66.5 -74.5t-64.5 -71.5h-269zM135 0v1049h316v-1049h-316z" />
<glyph unicode="&#xef;" horiz-adv-x="581" d="M-76 1290q0 82 29 106.5t110 24.5q83 0 112.5 -24.5t29.5 -106.5q0 -89 -29.5 -117t-112.5 -28q-81 0 -110 28t-29 117zM135 0v1049h316v-1049h-316zM385 1290q0 82 28 106.5t113 24.5q82 0 111 -24.5t29 -106.5q0 -89 -29.5 -117t-110.5 -28q-84 0 -112.5 27.5 t-28.5 117.5z" />
<glyph unicode="&#xf0;" d="M98 453q0 166 48 259t162.5 136t320.5 43q77 0 127 -4q-45 85 -109 170l-139 -84l-117 151l141 82q-64 77 -200 221h403q57 -57 64 -65l110 68l117 -150l-104 -61q136 -175 208 -361t72 -401q0 -147 -23 -237t-86.5 -149.5t-168.5 -82.5t-277 -23q-158 0 -260 23.5 t-168.5 81t-93.5 149.5t-27 234zM440 442q0 -101 41.5 -138.5t165.5 -37.5q87 0 127.5 16t58 62t17.5 143q0 68 -10 117q-73 8 -168 8q-62 0 -100.5 -4.5t-66 -14.5t-41 -30.5t-19 -48t-5.5 -72.5z" />
<glyph unicode="&#xf1;" horiz-adv-x="1222" d="M135 0v983q109 40 254.5 67t278.5 27q112 0 190 -25t133.5 -82t82 -153.5t26.5 -236.5v-580h-316v555q0 145 -35 193.5t-149 48.5q-68 0 -149 -19v-778h-316zM225 1274q92 164 228 164q51 0 97.5 -15t74 -32.5t62 -32.5t65.5 -15q36 0 57.5 22.5t44.5 84.5l147 -119 q-32 -85 -96 -138.5t-157 -53.5q-55 0 -106.5 24t-97 48t-85.5 24q-30 0 -53.5 -21t-45.5 -73z" />
<glyph unicode="&#xf2;" horiz-adv-x="1208" d="M94 530q0 159 31.5 266t98 168.5t157 87t221.5 25.5q133 0 224.5 -25.5t158 -87t98 -168.5t31.5 -266q0 -160 -31 -268.5t-97.5 -172.5t-158.5 -91t-225 -27q-131 0 -222.5 27t-157.5 91t-97 172.5t-31 268.5zM250 1427h323l250 -264h-264zM412 524q0 -133 18 -198 t56 -87t116 -22q80 0 118.5 22t56.5 87t18 198q0 84 -6 137.5t-18 88.5t-37 52t-54 23t-78 6q-60 0 -92.5 -9t-57 -42t-32.5 -92.5t-8 -163.5z" />
<glyph unicode="&#xf3;" horiz-adv-x="1208" d="M94 530q0 159 31.5 266t98 168.5t157 87t221.5 25.5q133 0 224.5 -25.5t158 -87t98 -168.5t31.5 -266q0 -160 -31 -268.5t-97.5 -172.5t-158.5 -91t-225 -27q-131 0 -222.5 27t-157.5 91t-97 172.5t-31 268.5zM385 1163l252 264h321l-307 -264h-266zM412 524 q0 -133 18 -198t56 -87t116 -22q80 0 118.5 22t56.5 87t18 198q0 84 -6 137.5t-18 88.5t-37 52t-54 23t-78 6q-60 0 -92.5 -9t-57 -42t-32.5 -92.5t-8 -163.5z" />
<glyph unicode="&#xf4;" horiz-adv-x="1208" d="M94 530q0 159 31.5 266t98 168.5t157 87t221.5 25.5q133 0 224.5 -25.5t158 -87t98 -168.5t31.5 -266q0 -160 -31 -268.5t-97.5 -172.5t-158.5 -91t-225 -27q-131 0 -222.5 27t-157.5 91t-97 172.5t-31 268.5zM195 1163q42 44 124.5 132t124.5 132h301l259 -264h-275 q-23 24 -135 146q-23 -25 -66.5 -74.5t-64.5 -71.5h-268zM412 524q0 -133 18 -198t56 -87t116 -22q80 0 118.5 22t56.5 87t18 198q0 84 -6 137.5t-18 88.5t-37 52t-54 23t-78 6q-60 0 -92.5 -9t-57 -42t-32.5 -92.5t-8 -163.5z" />
<glyph unicode="&#xf5;" horiz-adv-x="1208" d="M94 530q0 159 31.5 266t98 168.5t157 87t221.5 25.5q133 0 224.5 -25.5t158 -87t98 -168.5t31.5 -266q0 -160 -31 -268.5t-97.5 -172.5t-158.5 -91t-225 -27q-131 0 -222.5 27t-157.5 91t-97 172.5t-31 268.5zM213 1274q92 164 227 164q51 0 97.5 -15t74 -32.5t62 -32.5 t65.5 -15q36 0 58 22.5t45 84.5l147 -119q-32 -85 -96.5 -138.5t-157.5 -53.5q-55 0 -106.5 24t-97 48t-85.5 24q-30 0 -52.5 -21t-45.5 -73zM412 524q0 -133 18 -198t56 -87t116 -22q80 0 118.5 22t56.5 87t18 198q0 84 -6 137.5t-18 88.5t-37 52t-54 23t-78 6 q-60 0 -92.5 -9t-57 -42t-32.5 -92.5t-8 -163.5z" />
<glyph unicode="&#xf6;" horiz-adv-x="1208" d="M94 530q0 159 31.5 266t98 168.5t157 87t221.5 25.5q133 0 224.5 -25.5t158 -87t98 -168.5t31.5 -266q0 -160 -31 -268.5t-97.5 -172.5t-158.5 -91t-225 -27q-131 0 -222.5 27t-157.5 91t-97 172.5t-31 268.5zM231 1290q0 82 29 106.5t111 24.5q83 0 112 -24.5t29 -106.5 q0 -89 -29.5 -117t-111.5 -28q-81 0 -110.5 28t-29.5 117zM412 524q0 -133 18 -198t56 -87t116 -22q80 0 118.5 22t56.5 87t18 198q0 84 -6 137.5t-18 88.5t-37 52t-54 23t-78 6q-60 0 -92.5 -9t-57 -42t-32.5 -92.5t-8 -163.5zM692 1290q0 82 28.5 106.5t113.5 24.5 q81 0 110 -24.5t29 -106.5q0 -89 -29 -117t-110 -28q-84 0 -113 27.5t-29 117.5z" />
<glyph unicode="&#xf7;" horiz-adv-x="1153" d="M74 594v301h1003v-301h-1003zM383 309q0 103 38.5 134.5t147.5 31.5q112 0 150.5 -31t38.5 -135q0 -59 -9 -94.5t-32.5 -55t-57 -26t-90.5 -6.5q-109 0 -147.5 34.5t-38.5 147.5zM383 1192q0 105 38.5 136.5t147.5 31.5q112 0 150.5 -31.5t38.5 -136.5q0 -112 -39 -146 t-150 -34q-109 0 -147.5 34t-38.5 146z" />
<glyph unicode="&#xf8;" horiz-adv-x="1208" d="M4 0l154 174q-66 129 -66 354q0 127 21 221t61 157t103.5 101t142 54t182.5 16q193 0 301 -57l25 27h278l-155 -175q63 -123 63 -344q0 -160 -31 -268.5t-97.5 -171.5t-158.5 -90t-225 -27q-180 0 -295 56l-24 -27h-279zM410 596q0 -72 6 -133l301 346q-40 22 -115 22 q-55 0 -87.5 -8t-58 -32.5t-36 -71.5t-10.5 -123zM492 236q37 -19 110 -19q60 0 98.5 17.5t58.5 55.5t27 84.5t7 119.5q0 55 -2 84z" />
<glyph unicode="&#xf9;" horiz-adv-x="1222" d="M127 467v582h311v-557q0 -143 36.5 -192.5t150.5 -49.5q59 0 151 20v779h311v-986q-110 -39 -254.5 -66.5t-275.5 -27.5q-150 0 -242 46t-140 156t-48 296zM248 1427h323l250 -264h-264z" />
<glyph unicode="&#xfa;" horiz-adv-x="1222" d="M127 467v582h311v-557q0 -143 36.5 -192.5t150.5 -49.5q59 0 151 20v779h311v-986q-110 -39 -254.5 -66.5t-275.5 -27.5q-150 0 -242 46t-140 156t-48 296zM401 1163l252 264h322l-307 -264h-267z" />
<glyph unicode="&#xfb;" horiz-adv-x="1222" d="M127 467v582h311v-557q0 -143 36.5 -192.5t150.5 -49.5q59 0 151 20v779h311v-986q-110 -39 -254.5 -66.5t-275.5 -27.5q-150 0 -242 46t-140 156t-48 296zM213 1163q42 44 125 132t125 132h301l258 -264h-274q-47 49 -136 146q-23 -25 -66.5 -74.5t-64.5 -71.5h-268z " />
<glyph unicode="&#xfc;" horiz-adv-x="1222" d="M127 467v582h311v-557q0 -143 36.5 -192.5t150.5 -49.5q59 0 151 20v779h311v-986q-110 -39 -254.5 -66.5t-275.5 -27.5q-150 0 -242 46t-140 156t-48 296zM238 1290q0 82 29 106.5t110 24.5q83 0 112 -24.5t29 -106.5q0 -89 -29.5 -117t-111.5 -28q-81 0 -110 28 t-29 117zM698 1290q0 82 28.5 106.5t113.5 24.5q81 0 110 -24.5t29 -106.5q0 -89 -29 -117t-110 -28q-84 0 -113 27.5t-29 117.5z" />
<glyph unicode="&#xfd;" horiz-adv-x="1048" d="M-23 1047h318q116 -303 229 -730q158 450 224 730h313q-161 -561 -399 -1110q-90 -211 -150 -330h-346q79 135 172 342q-143 520 -361 1098zM348 1163l252 264h322l-308 -264h-266z" />
<glyph unicode="&#xfe;" horiz-adv-x="1220" d="M135 -393v1833h316v-375q77 12 159 12q110 0 190.5 -16.5t143.5 -55t102 -102.5t58.5 -157.5t19.5 -221.5q0 -155 -32 -264.5t-93 -171.5t-139 -89.5t-180 -27.5q-122 0 -229 47v-411h-316zM451 309q0 -35 46 -57.5t115 -22.5q113 0 155 61t42 226q0 127 -19.5 191 t-59.5 86t-120 22q-96 0 -159 -24v-482z" />
<glyph unicode="&#xff;" horiz-adv-x="1048" d="M-23 1047h318q116 -303 229 -730q158 450 224 730h313q-161 -561 -399 -1110q-90 -211 -150 -330h-346q79 135 172 342q-143 520 -361 1098zM164 1290q0 82 29 106.5t110 24.5q83 0 112 -24.5t29 -106.5q0 -89 -29.5 -117t-111.5 -28q-81 0 -110 28t-29 117zM625 1290 q0 82 28 106.5t113 24.5q81 0 110 -24.5t29 -106.5q0 -89 -29 -117t-110 -28q-84 0 -112.5 27.5t-28.5 117.5z" />
<glyph unicode="&#x152;" horiz-adv-x="2238" d="M100 729q0 173 29 299t83 209.5t141 133.5t193 70.5t249 20.5q182 0 305 -35h1089v-288h-772q52 -98 64 -256h403v-283h-401q-12 -195 -74 -311h780v-289h-1118q-119 -29 -276 -29q-179 0 -303.5 36t-215 122t-133.5 234t-43 366zM453 725q0 -104 5 -171.5t20 -121 t37 -82.5t63.5 -48t90.5 -24.5t126 -5.5t126 5.5t90.5 24.5t63.5 48t37 82.5t20 121t5 171.5q0 102 -4.5 168t-20.5 117t-37 78t-63.5 44.5t-90.5 22t-126 4.5t-126 -4.5t-90.5 -22t-63.5 -44.5t-37 -78t-20.5 -117t-4.5 -168z" />
<glyph unicode="&#x153;" horiz-adv-x="1832" d="M94 530q0 159 31.5 266t98 168.5t157 87t221.5 25.5q126 0 211.5 -24.5t140.5 -81.5q103 106 328 106q92 0 158.5 -10.5t124.5 -37t94.5 -73t61 -118t32 -171.5t0.5 -235h-641q3 -120 56 -159.5t175 -39.5q59 0 146.5 10t144.5 25l47 -239q-77 -26 -182 -42t-194 -16 q-235 0 -344 117q-103 -117 -359 -117q-131 0 -222.5 27t-157.5 91t-97 172.5t-31 268.5zM412 524q0 -133 18 -198t56 -87t116 -22q80 0 118.5 22t56.5 87t18 198q0 84 -6 137.5t-18 88.5t-37 52t-54 23t-78 6q-60 0 -92.5 -9t-57 -42t-32.5 -92.5t-8 -163.5zM1114 664h365 q-3 105 -40.5 140.5t-133.5 35.5t-137 -37t-54 -139z" />
<glyph unicode="&#x178;" horiz-adv-x="1337" d="M-113 1427h439q185 -243 366 -505q252 355 340 505h408q-270 -413 -588 -845v-582h-330v580q-430 602 -635 847zM319 1657q0 82 28.5 105.5t111.5 23.5t112 -23.5t29 -105.5q0 -91 -29 -118.5t-112 -27.5t-111.5 27.5t-28.5 118.5zM780 1657q0 82 28.5 105.5t113.5 23.5 q82 0 110.5 -24t28.5 -105q0 -91 -29 -118.5t-110 -27.5q-84 0 -113 27.5t-29 118.5z" />
<glyph unicode="&#x2c6;" horiz-adv-x="1333" d="M289 1163q42 44 125 132t125 132h301l258 -264h-275q-22 24 -135 146q-23 -25 -66.5 -74.5t-64.5 -71.5h-268z" />
<glyph unicode="&#x2dc;" horiz-adv-x="1452" d="M291 1274q92 164 227 164q51 0 97.5 -15t74 -32.5t62 -32.5t65.5 -15q36 0 58 22.5t45 84.5l147 -119q-32 -85 -96.5 -138.5t-157.5 -53.5q-55 0 -106.5 24t-97 48t-85.5 24q-30 0 -52.5 -21t-45.5 -73z" />
<glyph unicode="&#x2000;" horiz-adv-x="920" />
<glyph unicode="&#x2001;" horiz-adv-x="1841" />
<glyph unicode="&#x2002;" horiz-adv-x="920" />
<glyph unicode="&#x2003;" horiz-adv-x="1841" />
<glyph unicode="&#x2004;" horiz-adv-x="613" />
<glyph unicode="&#x2005;" horiz-adv-x="460" />
<glyph unicode="&#x2006;" horiz-adv-x="306" />
<glyph unicode="&#x2007;" horiz-adv-x="306" />
<glyph unicode="&#x2008;" horiz-adv-x="230" />
<glyph unicode="&#x2009;" horiz-adv-x="368" />
<glyph unicode="&#x200a;" horiz-adv-x="102" />
<glyph unicode="&#x2010;" horiz-adv-x="649" d="M55 432v301h539v-301h-539z" />
<glyph unicode="&#x2011;" horiz-adv-x="649" d="M55 432v301h539v-301h-539z" />
<glyph unicode="&#x2012;" horiz-adv-x="649" d="M55 432v301h539v-301h-539z" />
<glyph unicode="&#x2013;" horiz-adv-x="1220" d="M96 432v301h1028v-301h-1028z" />
<glyph unicode="&#x2014;" horiz-adv-x="1800" d="M96 432v301h1608v-301h-1608z" />
<glyph unicode="&#x2018;" horiz-adv-x="563" d="M49 1034l223 541h246l-160 -541h-309z" />
<glyph unicode="&#x2019;" horiz-adv-x="563" d="M47 1018l160 543h309l-223 -543h-246z" />
<glyph unicode="&#x201a;" horiz-adv-x="532" d="M31 -326l159 541h310l-224 -541h-245z" />
<glyph unicode="&#x201c;" horiz-adv-x="995" d="M49 1034l223 541h246l-160 -541h-309zM479 1034l223 541h246l-160 -541h-309z" />
<glyph unicode="&#x201d;" horiz-adv-x="995" d="M49 1022l160 541h309l-223 -541h-246zM479 1022l160 541h309l-223 -541h-246z" />
<glyph unicode="&#x201e;" horiz-adv-x="995" d="M49 -342l160 543h309l-223 -543h-246zM479 -342l160 543h309l-223 -543h-246z" />
<glyph unicode="&#x2022;" horiz-adv-x="1208" d="M94 674q0 159 31.5 266t98 168.5t157 87t221.5 25.5q133 0 224.5 -25.5t158 -87t98 -168.5t31.5 -266q0 -160 -31 -268.5t-97.5 -172.5t-158.5 -91t-225 -27q-131 0 -222.5 27t-157.5 91t-97 172.5t-31 268.5z" />
<glyph unicode="&#x2026;" horiz-adv-x="2265" d="M225 168q0 104 39 136t148 32q111 0 150.5 -32t39.5 -136q0 -113 -39 -147.5t-151 -34.5q-109 0 -148 34.5t-39 147.5zM942 168q0 104 39 136t147 32q112 0 151.5 -32t39.5 -136q0 -113 -39.5 -147.5t-151.5 -34.5q-109 0 -147.5 34.5t-38.5 147.5zM1663 168 q0 104 39 136t147 32q111 0 150 -32t39 -136q0 -59 -9 -94.5t-32.5 -55t-57 -26t-90.5 -6.5q-109 0 -147.5 34.5t-38.5 147.5z" />
<glyph unicode="&#x202f;" horiz-adv-x="368" />
<glyph unicode="&#x2039;" horiz-adv-x="829" d="M47 651l555 586l180 -180l-319 -400l319 -407l-176 -184z" />
<glyph unicode="&#x203a;" horiz-adv-x="829" d="M49 248l320 399l-320 408l176 184l557 -588l-555 -583z" />
<glyph unicode="&#x205f;" horiz-adv-x="460" />
<glyph unicode="&#x20ac;" horiz-adv-x="1204" d="M100 727q0 146 18 257.5t56 193t91.5 136t131.5 87.5t169 47t210 14q101 0 217.5 -14t196.5 -37l-64 -291q-109 39 -280 39q-160 0 -240 -31.5t-114 -130.5h434v-202h-473v-142h473v-200h-434q35 -106 115 -141.5t239 -35.5q68 0 148 11t132 28l64 -297 q-180 -47 -414 -47q-142 0 -247 23t-188.5 75.5t-135 140t-78.5 215.5t-27 302z" />
<glyph unicode="&#x2122;" horiz-adv-x="1787" d="M8 1237v190h697v-190h-240v-555h-217v555h-240zM780 682v745h273l186 -444l178 444h262v-745h-206v457l-175 -414h-149l-162 414v-457h-207z" />
<glyph unicode="&#xe000;" horiz-adv-x="1044" d="M0 0v1044h1044v-1044h-1044z" />
</font>
</defs>
</svg>
